<svg width="248" height="183" viewBox="0 0 248 183" fill="none" xmlns="http://www.w3.org/2000/svg">
<path d="M96.084 37.1595C95.89 31.8106 94.571 26.5626 92.212 21.758C91.317 19.9343 90.275 18.1861 89.097 16.5305C80.307 4.15501 64.547 -2.21709 48.9535 1.71271C33.3604 5.64261 22.49 18.7262 20.5982 33.794C20.3434 35.8104 20.2521 37.8442 20.3251 39.8753C20.5184 45.2242 21.8375 50.4723 24.1964 55.2769C33.4476 54.9792 45.8722 53.3627 60.9788 49.5555C76.085 45.7483 87.794 41.2826 96.084 37.1595Z" fill="#1A80FD"/>
<mask id="mask0_625_923" style="mask-type:luminance" maskUnits="userSpaceOnUse" x="20" y="0" width="77" height="56">
<path d="M96.084 37.1595C95.89 31.8106 94.571 26.5626 92.212 21.758C91.317 19.9343 90.275 18.1861 89.097 16.5305C80.307 4.15501 64.547 -2.21709 48.9535 1.71271C33.3604 5.64261 22.49 18.7262 20.5982 33.794C20.3434 35.8104 20.2521 37.8442 20.3251 39.8753C20.5184 45.2242 21.8375 50.4723 24.1964 55.2769C33.4476 54.9792 45.8722 53.3627 60.9788 49.5555C76.085 45.7483 87.794 41.2826 96.084 37.1595Z" fill="white"/>
</mask>
<g mask="url(#mask0_625_923)">
<path d="M33.805 -4.54385C114.474 0.238852 97.912 44.5432 40.3903 53.7324C-17.131 62.9216 116.411 47.6679 116.411 47.6679L114.23 3.69405L53.0583 -8.20215L36.7295 0.0574532" fill="#3270E0"/>
</g>
<path d="M27.3125 60.5044C36.1023 72.88 51.863 79.252 67.456 75.322C83.049 71.393 93.92 58.3087 95.812 43.2412C86.476 47.5711 74.814 51.5849 62.2835 54.7428C49.7532 57.9008 37.5825 59.8936 27.3125 60.5044Z" fill="#1A80FD"/>
<path d="M116.219 23.8961C114.938 18.8002 107.785 16.2526 94.958 16.3268C93.089 16.3375 91.126 16.4096 89.097 16.5302C90.274 18.1859 91.316 19.9341 92.212 21.7578C103.896 21.3819 110.513 23.1107 111.039 25.2017C111.564 27.2927 106.553 31.9522 96.083 37.1593C87.794 41.2823 76.085 45.748 60.9785 49.5552C45.8719 53.3625 33.4472 54.9789 24.196 55.2766C12.5126 55.6528 5.8951 53.9237 5.3692 51.833C4.8439 49.742 9.8556 45.0823 20.3248 39.8751C20.2518 37.8439 20.3432 35.8102 20.5979 33.7938C18.7531 34.6494 16.9901 35.5162 15.3393 36.3928C4.0051 42.4078 -1.0918 48.0425 0.189203 53.1384C1.4701 58.2345 8.6237 60.7818 21.4509 60.7076C23.3195 60.697 25.2819 60.6251 27.3115 60.5042C37.5815 59.8933 49.7521 57.9005 62.2825 54.7425C74.813 51.5846 86.475 47.5708 95.81 43.2409C97.655 42.385 99.418 41.5182 101.069 40.6419C112.403 34.6267 117.5 28.992 116.219 23.8961Z" fill="#FFCE39"/>
<mask id="mask1_625_923" style="mask-type:luminance" maskUnits="userSpaceOnUse" x="-1" y="16" width="118" height="45">
<path d="M116.219 23.8961C114.938 18.8002 107.785 16.2526 94.958 16.3268C93.089 16.3375 91.126 16.4096 89.097 16.5302C90.274 18.1859 91.316 19.9341 92.212 21.7578C103.896 21.3819 110.513 23.1107 111.039 25.2017C111.564 27.2927 106.553 31.9522 96.083 37.1593C87.794 41.2823 76.085 45.748 60.9785 49.5552C45.8719 53.3625 33.4472 54.9789 24.196 55.2766C12.5126 55.6528 5.8951 53.9237 5.3692 51.833C4.8439 49.742 9.8556 45.0823 20.3248 39.8751C20.2518 37.8439 20.3432 35.8102 20.5979 33.7938C18.7531 34.6494 16.9901 35.5162 15.3393 36.3928C4.0051 42.4078 -1.0918 48.0425 0.189203 53.1384C1.4701 58.2345 8.6237 60.7818 21.4509 60.7076C23.3195 60.697 25.2819 60.6251 27.3115 60.5042C37.5815 59.8933 49.7521 57.9005 62.2825 54.7425C74.813 51.5846 86.475 47.5708 95.81 43.2409C97.655 42.385 99.418 41.5182 101.069 40.6419C112.403 34.6267 117.5 28.992 116.219 23.8961Z" fill="white"/>
</mask>
<g mask="url(#mask1_625_923)">
<path d="M-8.60156 38.5172C26.9805 32.9044 23.5686 48.908 23.5686 48.908L32.3422 29.0332L18.2069 26.1007M79.379 10.9497C97.17 13.3813 99.12 26.1007 99.12 26.1007L84.009 29.0331L79.135 24.3631" fill="#FCB006"/>
</g>
<path d="M214.036 155.605H132.246V170.629H214.036V155.605Z" fill="#FFCE39"/>
<mask id="mask2_625_923" style="mask-type:luminance" maskUnits="userSpaceOnUse" x="132" y="155" width="83" height="16">
<path d="M214.036 155.605H132.246V170.629H214.036V155.605Z" fill="white"/>
</mask>
<g mask="url(#mask2_625_923)">
<path d="M152.922 153.04H142.492V172.645H152.922V153.04Z" fill="#FF6660"/>
<path d="M163.247 154.88C159.778 158.007 221.172 161.138 222.27 168.054C223.368 174.97 218.33 149.856 218.33 149.856L210.33 150.467" fill="#FCB006"/>
</g>
<path d="M235.263 120.549H153.473V135.573H235.263V120.549Z" fill="#FF6660"/>
<mask id="mask3_625_923" style="mask-type:luminance" maskUnits="userSpaceOnUse" x="153" y="120" width="83" height="16">
<path d="M235.263 120.549H153.473V135.573H235.263V120.549Z" fill="white"/>
</mask>
<g mask="url(#mask3_625_923)">
<path d="M225.016 117.984H214.586V137.588H225.016V117.984Z" fill="#F1F3FD"/>
<path d="M211.905 117.984H209.953V137.588H211.905V117.984Z" fill="#F1F3FD"/>
<path d="M152.579 132.356C149.895 134.677 205.153 134.677 203.934 135.654C202.714 136.632 154.774 139.319 154.774 139.319L150.383 132.967" fill="#F44E4E"/>
</g>
<path d="M230.608 144.979H158.125C160.948 147.498 158.125 154.735 158.125 154.735H230.608C230.608 154.735 227.785 147.498 230.608 144.979Z" fill="#F1F3FD"/>
<mask id="mask4_625_923" style="mask-type:luminance" maskUnits="userSpaceOnUse" x="158" y="144" width="73" height="11">
<path d="M230.608 144.979H158.125C160.948 147.498 158.125 154.735 158.125 154.735H230.608C230.608 154.735 227.785 147.498 230.608 144.979Z" fill="white"/>
</mask>
<g mask="url(#mask4_625_923)">
<path d="M157.124 148.755L158.587 148.78L183.655 149.213L155.66 149.857" fill="#D6DCF2"/>
<path d="M241.88 151.552L240.417 151.526L215.349 151.094L243.344 150.45" fill="#D6DCF2"/>
</g>
<path d="M233.431 143.146H155.301V145.894H233.431V143.146Z" fill="#43B195"/>
<path d="M233.431 152.857H155.301V155.605H233.431V152.857Z" fill="#43B195"/>
<path d="M222.267 139.36H135.293V144.001H222.267V139.36Z" fill="#9563F7"/>
<mask id="mask5_625_923" style="mask-type:luminance" maskUnits="userSpaceOnUse" x="135" y="139" width="88" height="6">
<path d="M222.267 139.36H135.293V144.001H222.267V139.36Z" fill="white"/>
</mask>
<g mask="url(#mask5_625_923)">
<path d="M178.778 138.586C166.727 142.434 223.083 140.378 224.73 141.68C226.377 142.983 225.828 137.894 225.828 137.894L209.726 136.021" fill="#8656EA"/>
</g>
<path d="M229.345 135.573H142.371V140.215H229.345V135.573Z" fill="#1A80FD"/>
<path d="M204.079 101.776H202.926C202.097 101.776 201.276 101.613 200.51 101.295C199.744 100.978 199.048 100.513 198.462 99.9269C197.876 99.3409 197.411 98.6449 197.094 97.8789C196.777 97.1129 196.613 96.2919 196.613 95.4629V85.8789H210.391V95.4629C210.391 97.1369 209.726 98.7429 208.542 99.9269C207.359 101.111 205.753 101.776 204.079 101.776Z" fill="#FF6660"/>
<path d="M209.052 98.5769H197.95C197.357 98.5769 196.77 98.4599 196.222 98.2329C195.674 98.0059 195.176 97.6739 194.756 97.2539C194.337 96.8349 194.004 96.3369 193.777 95.7889C193.55 95.2409 193.434 94.6539 193.434 94.0609V82.6799H213.569V94.0609C213.569 94.6539 213.452 95.2409 213.225 95.7889C212.998 96.3369 212.665 96.8349 212.246 97.2539C211.827 97.6739 211.329 98.0059 210.781 98.2329C210.233 98.4599 209.645 98.5769 209.052 98.5769Z" fill="#FF6660"/>
<mask id="mask6_625_923" style="mask-type:luminance" maskUnits="userSpaceOnUse" x="193" y="82" width="21" height="17">
<path d="M209.052 98.5769H197.95C197.357 98.5769 196.77 98.4599 196.222 98.2329C195.674 98.0059 195.176 97.6739 194.756 97.2539C194.337 96.8349 194.004 96.3369 193.777 95.7889C193.55 95.2409 193.434 94.6539 193.434 94.0609V82.6799H213.569V94.0609C213.569 94.6539 213.452 95.2409 213.225 95.7889C212.998 96.3369 212.665 96.8349 212.246 97.2539C211.827 97.6739 211.329 98.0059 210.781 98.2329C210.233 98.4599 209.645 98.5769 209.052 98.5769Z" fill="white"/>
</mask>
<g mask="url(#mask6_625_923)">
<path d="M195.281 99.3209C190.002 83.4609 204.362 86.4999 216.399 85.8789C228.437 85.2579 209.008 81.3459 209.008 81.3459L193.435 82.6799L191.797 89.6989L192.669 98.0519" fill="#F44E4E"/>
</g>
<path d="M223.25 56.0238C223.25 45.2116 214.584 36.4262 203.827 36.2521C200.322 36.2006 196.866 37.0813 193.813 38.8042C190.761 40.5271 188.22 43.0303 186.453 46.0576C184.685 49.0848 183.754 52.5274 183.754 56.0329C183.754 59.5384 184.686 62.9809 186.453 66.008C189.701 71.554 191.498 77.831 191.498 84.26C191.498 84.432 191.566 84.597 191.688 84.719C191.81 84.841 191.975 84.91 192.147 84.91H214.856C214.942 84.91 215.026 84.893 215.105 84.86C215.184 84.827 215.255 84.779 215.315 84.719C215.376 84.659 215.424 84.587 215.456 84.508C215.489 84.43 215.505 84.345 215.505 84.26C215.505 77.907 217.164 71.645 220.435 66.2023C222.282 63.1289 223.255 59.6095 223.25 56.0238Z" fill="#FFCE39"/>
<mask id="mask7_625_923" style="mask-type:luminance" maskUnits="userSpaceOnUse" x="183" y="36" width="41" height="49">
<path d="M223.25 56.0238C223.25 45.2116 214.584 36.4262 203.827 36.2521C200.322 36.2006 196.866 37.0813 193.813 38.8042C190.761 40.5271 188.22 43.0303 186.453 46.0576C184.685 49.0848 183.754 52.5274 183.754 56.0329C183.754 59.5384 184.686 62.9809 186.453 66.008C189.701 71.554 191.498 77.831 191.498 84.26C191.498 84.432 191.566 84.597 191.688 84.719C191.81 84.841 191.975 84.91 192.147 84.91H214.856C214.942 84.91 215.026 84.893 215.105 84.86C215.184 84.827 215.255 84.779 215.315 84.719C215.376 84.659 215.424 84.587 215.456 84.508C215.489 84.43 215.505 84.345 215.505 84.26C215.505 77.907 217.164 71.645 220.435 66.2023C222.282 63.1289 223.255 59.6095 223.25 56.0238Z" fill="white"/>
</mask>
<g mask="url(#mask7_625_923)">
<path d="M190.214 39.2646C169.307 62.1028 202.885 86.808 220.202 84.711C237.519 82.615 195.282 99.3201 195.282 99.3201L177.357 90.628L170.574 58.2793" fill="#FCB006"/>
</g>
<path d="M212.915 87.5271H194.087C193.303 87.5271 192.668 88.1621 192.668 88.9461V89.2091C192.668 89.9931 193.303 90.6291 194.087 90.6291H212.915C213.699 90.6291 214.334 89.9931 214.334 89.2091V88.9461C214.334 88.1621 213.699 87.5271 212.915 87.5271Z" fill="#F1F3FD"/>
<path d="M212.915 92.2761H194.087C193.303 92.2761 192.668 92.9121 192.668 93.6961V93.9591C192.668 94.7431 193.303 95.3781 194.087 95.3781H212.915C213.699 95.3781 214.334 94.7431 214.334 93.9591V93.6961C214.334 92.9121 213.699 92.2761 212.915 92.2761Z" fill="#F1F3FD"/>
<path d="M203.687 10.1533H203.32C202.207 10.1533 201.305 11.0554 201.305 12.1682V26.5184C201.305 27.6311 202.207 28.5332 203.32 28.5332H203.687C204.8 28.5332 205.702 27.6311 205.702 26.5184V12.1682C205.702 11.0554 204.8 10.1533 203.687 10.1533Z" fill="#FCB006"/>
<path d="M175.34 52.5132H161.015C159.902 52.5132 159 53.4153 159 54.5281V54.9018C159 56.0146 159.902 56.9167 161.015 56.9167H175.34C176.453 56.9167 177.355 56.0146 177.355 54.9018V54.5281C177.355 53.4153 176.453 52.5132 175.34 52.5132Z" fill="#FCB006"/>
<path d="M245.989 52.5132H231.663C230.551 52.5132 229.648 53.4153 229.648 54.5281V54.9018C229.648 56.0146 230.551 56.9167 231.663 56.9167H245.989C247.102 56.9167 248.004 56.0146 248.004 54.9018V54.5281C248.004 53.4153 247.102 52.5132 245.989 52.5132Z" fill="#FCB006"/>
<path d="M185.143 36.0705L184.881 36.3329C184.695 36.5201 184.473 36.6686 184.228 36.7699C183.984 36.8713 183.722 36.9234 183.458 36.9234C183.193 36.9234 182.931 36.8713 182.687 36.7699C182.443 36.6686 182.221 36.5201 182.034 36.3329L171.902 26.1877C171.525 25.8093 171.312 25.2966 171.312 24.762C171.312 24.2274 171.525 23.7147 171.902 23.3363L172.164 23.0739C172.351 22.8867 172.573 22.7382 172.817 22.6369C173.062 22.5356 173.324 22.4834 173.588 22.4834C173.853 22.4834 174.114 22.5356 174.359 22.6369C174.603 22.7382 174.825 22.8867 175.012 23.0739L185.143 33.2191C185.521 33.5975 185.733 34.1102 185.733 34.6448C185.733 35.1794 185.521 35.6921 185.143 36.0705ZM234.838 23.0739L235.1 23.3363C235.477 23.7147 235.69 24.2275 235.69 24.762C235.69 25.2966 235.477 25.8094 235.1 26.1877L224.968 36.3329C224.781 36.5201 224.559 36.6686 224.315 36.7699C224.071 36.8713 223.809 36.9234 223.544 36.9234C223.28 36.9234 223.018 36.8713 222.774 36.7699C222.529 36.6686 222.307 36.5201 222.121 36.3329L221.859 36.0705C221.481 35.6921 221.269 35.1794 221.269 34.6448C221.269 34.1102 221.481 33.5975 221.859 33.2191L231.99 23.0739C232.177 22.8867 232.399 22.7382 232.643 22.6369C232.888 22.5356 233.149 22.4834 233.414 22.4834C233.678 22.4834 233.94 22.5356 234.185 22.6369C234.429 22.7382 234.651 22.8867 234.838 23.0739Z" fill="#FCB006"/>
<path d="M31.6079 146.949H29.5117V113.777L31.6079 115.365V146.949Z" fill="#FFCE39"/>
<path d="M36.0092 175.521L32.9794 149.101H28.1412L25.1114 175.521C24.8154 176.776 24.9833 178.096 25.5841 179.238C26.4295 180.9 28.0482 182.108 29.8984 182.321C30.7885 182.427 31.6913 182.318 32.5304 182.003C33.3695 181.687 34.1204 181.175 34.7197 180.508C35.3189 179.841 35.7489 179.04 35.9733 178.172C36.1978 177.304 36.2101 176.395 36.0092 175.521Z" fill="#FFCE39"/>
<mask id="mask8_625_923" style="mask-type:luminance" maskUnits="userSpaceOnUse" x="24" y="149" width="13" height="34">
<path d="M36.0092 175.521L32.9794 149.101H28.1412L25.1114 175.521C24.8154 176.776 24.9833 178.096 25.5841 179.238C26.4295 180.9 28.0482 182.108 29.8984 182.321C30.7885 182.427 31.6913 182.318 32.5304 182.003C33.3695 181.687 34.1204 181.175 34.7197 180.508C35.3189 179.841 35.7489 179.04 35.9733 178.172C36.1978 177.304 36.2101 176.395 36.0092 175.521Z" fill="white"/>
</mask>
<g mask="url(#mask8_625_923)">
<path d="M18.5409 158.207C28.3051 162.552 35.8995 147.343 35.8995 147.343H25.0503L16.3711 153.861V160.38" fill="#FCB006"/>
</g>
<path d="M30.5582 151.963C33.3238 151.963 35.5657 149.718 35.5657 146.949C35.5657 144.18 33.3238 141.935 30.5582 141.935C27.7927 141.935 25.5508 144.18 25.5508 146.949C25.5508 149.718 27.7927 151.963 30.5582 151.963Z" fill="#FF6660"/>
<mask id="mask9_625_923" style="mask-type:luminance" maskUnits="userSpaceOnUse" x="25" y="141" width="11" height="11">
<path d="M30.5582 151.963C33.3238 151.963 35.5657 149.718 35.5657 146.949C35.5657 144.18 33.3238 141.935 30.5582 141.935C27.7927 141.935 25.5508 144.18 25.5508 146.949C25.5508 149.718 27.7927 151.963 30.5582 151.963Z" fill="white"/>
</mask>
<g mask="url(#mask9_625_923)">
<path d="M31.6063 139.689C38.0065 151.304 23.9062 152.67 23.9062 152.67L39.4848 155.403L39.8258 143.105" fill="#F44E4E"/>
</g>
<path d="M51.5703 106.681V156.778C55.6398 164.685 65.406 171.195 78.156 174.757C84.911 176.643 92.501 177.704 100.525 177.704C108.549 177.704 116.139 176.643 122.894 174.757C135.644 171.195 145.41 164.685 149.48 156.778V106.681H51.5703Z" fill="#2F4354"/>
<path d="M96.453 141.621L20.105 119.74C13.2788 117.783 13.1304 108.151 19.8932 105.985L96.016 81.602C98.947 80.663 102.097 80.663 105.028 81.602L181.151 105.985C187.914 108.151 187.766 117.783 180.939 119.74L104.592 141.621C101.932 142.383 99.112 142.383 96.453 141.621Z" fill="#455669"/>
<mask id="mask10_625_923" style="mask-type:luminance" maskUnits="userSpaceOnUse" x="14" y="80" width="173" height="63">
<path d="M96.453 141.621L20.105 119.74C13.2788 117.783 13.1304 108.151 19.8932 105.985L96.016 81.602C98.947 80.663 102.097 80.663 105.028 81.602L181.151 105.985C187.914 108.151 187.766 117.783 180.939 119.74L104.592 141.621C101.932 142.383 99.112 142.383 96.453 141.621Z" fill="white"/>
</mask>
<g mask="url(#mask10_625_923)">
<path d="M85.981 80.897C7.87394 114.526 64.956 132.279 96.455 141.621C127.953 150.962 1.96094 151.963 1.96094 151.963L3.78034 103.151L18.7902 89.476" fill="#2F4354"/>
</g>
<path d="M167.638 17.8366C167.003 18.9268 164.988 20.9125 164.587 21.4245C164.185 21.9365 165.173 22.3792 165.173 22.3792L168.573 22.0947C168.573 22.0947 170.267 14.3289 167.638 17.8366ZM141.374 153.939L135.414 161.258L133.762 166.917L139.692 172.541L144.07 173.514L146.038 167.377C146.038 167.377 145.156 164.534 145.473 163.777C145.79 163.02 154.632 151.934 154.632 151.934L142.181 155.02" fill="#F9C1BB"/>
<mask id="mask11_625_923" style="mask-type:luminance" maskUnits="userSpaceOnUse" x="133" y="151" width="22" height="23">
<path d="M141.374 153.938L135.414 161.257L133.762 166.916L139.692 172.54L144.07 173.514L146.038 167.376C146.038 167.376 145.156 164.534 145.473 163.776C145.79 163.019 154.632 151.934 154.632 151.934L142.181 155.02" fill="white"/>
</mask>
<g mask="url(#mask11_625_923)">
<path d="M132.797 156.762C139.832 161.994 148.942 161.179 148.942 161.179L139.388 154.752L135.093 155.691" fill="#ED707B"/>
</g>
<path d="M132.382 165.497L136.352 159.951C136.352 159.951 134.216 165.96 140.091 170.908C140.091 170.908 146.612 164.85 147.568 168.434C148.408 171.584 150.57 173.958 152.437 175.502C154.249 177.002 154.621 179.05 153.443 180.804C153.443 180.804 139.543 179.161 132.323 167.958C132.08 167.591 131.955 167.158 131.965 166.718C131.976 166.278 132.122 165.852 132.382 165.497Z" fill="#455669"/>
<path d="M127.23 45.6919C128.409 45.8427 149.97 44.7325 149.97 44.7325C149.97 44.7325 162.671 23.5046 164.587 21.4243C166.503 19.344 175.606 18.8662 177.548 16.9278C179.543 14.9369 182.272 17.9096 168.764 23.5633L157.387 50.7789C155.593 55.0843 153.946 54.7289 149.541 55.6398L129.746 58.2303L127.804 46.7276" fill="#F9C1BB"/>
<mask id="mask12_625_923" style="mask-type:luminance" maskUnits="userSpaceOnUse" x="127" y="16" width="53" height="43">
<path d="M127.23 45.6919C128.409 45.8427 149.97 44.7325 149.97 44.7325C149.97 44.7325 162.671 23.5046 164.587 21.4243C166.503 19.344 175.606 18.8662 177.548 16.9278C179.543 14.9369 182.272 17.9096 168.764 23.5633L157.387 50.7789C155.593 55.0843 153.946 54.7289 149.541 55.6398L129.746 58.2303L127.804 46.7276" fill="white"/>
</mask>
<g mask="url(#mask12_625_923)">
<path d="M144.483 62.0294C148.275 52.9821 142.613 44.1885 142.613 44.1885L139.185 60.2089L144.483 62.0294Z" fill="#ED707B"/>
</g>
<path d="M142.614 44.1887C146.373 49.1205 143.303 60.0662 143.303 60.0662L120.262 60.8661L122.762 43.0859L142.614 44.1887Z" fill="#FFCE39"/>
<path d="M152.49 162.371L171.108 111.555C172.736 107.11 170.35 102.307 165.495 100.258L124.21 82.833L117.879 94.896L151.756 113.352L135.913 154.935C135.913 154.935 150.887 164.491 152.49 162.371Z" fill="#3270E0"/>
<mask id="mask13_625_923" style="mask-type:luminance" maskUnits="userSpaceOnUse" x="117" y="82" width="55" height="81">
<path d="M152.49 162.371L171.108 111.555C172.736 107.11 170.35 102.307 165.495 100.258L124.21 82.833L117.879 94.896L151.756 113.352L135.913 154.935C135.913 154.935 150.887 164.491 152.49 162.371Z" fill="white"/>
</mask>
<g mask="url(#mask13_625_923)">
<path d="M123.026 145.086L124.226 147.521C124.306 147.683 124.423 147.823 124.569 147.929C124.715 148.035 124.884 148.104 125.062 148.13L127.746 148.52C127.951 148.55 128.144 148.637 128.302 148.771C128.461 148.905 128.578 149.08 128.642 149.277C128.706 149.475 128.714 149.686 128.664 149.887C128.615 150.088 128.51 150.272 128.361 150.417L126.419 152.312C126.29 152.438 126.194 152.594 126.138 152.765C126.083 152.936 126.07 153.119 126.1 153.296L126.558 155.973C126.594 156.177 126.571 156.387 126.493 156.579C126.415 156.772 126.285 156.938 126.117 157.06C125.95 157.182 125.751 157.255 125.544 157.27C125.338 157.285 125.131 157.241 124.947 157.145L122.547 155.881C122.387 155.797 122.21 155.754 122.03 155.754C121.85 155.754 121.673 155.797 121.513 155.881L119.113 157.145C118.929 157.241 118.722 157.285 118.516 157.27C118.309 157.255 118.11 157.182 117.943 157.06C117.775 156.938 117.645 156.772 117.567 156.579C117.489 156.387 117.466 156.177 117.502 155.973L117.96 153.296C117.991 153.119 117.977 152.936 117.922 152.765C117.866 152.594 117.77 152.438 117.641 152.312L115.699 150.417C115.55 150.272 115.445 150.088 115.396 149.887C115.346 149.686 115.354 149.475 115.418 149.277C115.482 149.08 115.599 148.905 115.758 148.771C115.916 148.637 116.109 148.55 116.314 148.52L118.998 148.13C119.176 148.104 119.345 148.035 119.491 147.929C119.637 147.823 119.754 147.683 119.834 147.521L121.034 145.086C121.126 144.9 121.267 144.744 121.444 144.634C121.62 144.524 121.823 144.466 122.03 144.466C122.237 144.466 122.441 144.524 122.617 144.634C122.793 144.744 122.934 144.9 123.026 145.086Z" fill="#1A80FD"/>
<path d="M144.547 145.884L145.488 147.794C145.568 147.956 145.685 148.096 145.831 148.201C145.977 148.307 146.146 148.376 146.324 148.402L148.429 148.709C148.634 148.739 148.827 148.826 148.985 148.959C149.144 149.093 149.261 149.269 149.325 149.466C149.389 149.663 149.397 149.874 149.347 150.076C149.298 150.277 149.193 150.46 149.044 150.605L147.521 152.092C147.392 152.218 147.296 152.373 147.24 152.544C147.185 152.716 147.172 152.898 147.202 153.076L147.562 155.175C147.597 155.379 147.574 155.589 147.496 155.781C147.418 155.973 147.288 156.14 147.12 156.262C146.953 156.384 146.754 156.456 146.548 156.471C146.341 156.486 146.134 156.443 145.95 156.347L144.068 155.356C143.909 155.272 143.731 155.228 143.551 155.228C143.371 155.228 143.194 155.272 143.034 155.356L141.152 156.347C140.969 156.443 140.762 156.486 140.555 156.471C140.348 156.456 140.15 156.384 139.982 156.262C139.814 156.14 139.684 155.973 139.606 155.781C139.528 155.589 139.506 155.379 139.541 155.175L139.9 153.076C139.931 152.898 139.918 152.716 139.862 152.544C139.806 152.373 139.71 152.218 139.581 152.092L138.058 150.605C137.91 150.46 137.805 150.277 137.755 150.076C137.705 149.874 137.713 149.663 137.777 149.466C137.841 149.269 137.959 149.093 138.117 148.959C138.276 148.826 138.468 148.739 138.674 148.709L140.778 148.402C140.956 148.376 141.126 148.307 141.271 148.201C141.417 148.096 141.535 147.956 141.614 147.794L142.555 145.884C142.647 145.698 142.789 145.542 142.965 145.432C143.141 145.323 143.344 145.265 143.551 145.265C143.758 145.265 143.962 145.323 144.138 145.432C144.314 145.542 144.455 145.698 144.547 145.884Z" fill="#3270E0"/>
<path d="M134.852 127.272L135.793 129.182C135.872 129.343 135.99 129.483 136.136 129.589C136.281 129.695 136.451 129.764 136.629 129.79L138.734 130.096C138.939 130.126 139.131 130.213 139.29 130.347C139.448 130.481 139.566 130.656 139.63 130.854C139.694 131.051 139.702 131.262 139.652 131.463C139.602 131.665 139.497 131.848 139.349 131.993L137.826 133.479C137.697 133.605 137.601 133.761 137.545 133.932C137.489 134.104 137.476 134.286 137.507 134.464L137.866 136.562C137.901 136.767 137.879 136.977 137.801 137.169C137.723 137.361 137.593 137.528 137.425 137.65C137.257 137.772 137.059 137.844 136.852 137.859C136.645 137.874 136.439 137.831 136.255 137.735L134.373 136.744C134.213 136.66 134.036 136.616 133.856 136.616C133.676 136.616 133.498 136.66 133.339 136.744L131.457 137.735C131.273 137.831 131.066 137.874 130.86 137.859C130.653 137.844 130.454 137.772 130.287 137.65C130.119 137.528 129.989 137.361 129.911 137.169C129.833 136.977 129.81 136.767 129.846 136.562L130.205 134.464C130.236 134.286 130.222 134.104 130.167 133.932C130.111 133.761 130.015 133.605 129.886 133.479L128.363 131.993C128.214 131.848 128.109 131.665 128.06 131.463C128.01 131.262 128.018 131.051 128.082 130.854C128.146 130.656 128.264 130.481 128.422 130.347C128.58 130.213 128.773 130.126 128.978 130.096L131.083 129.79C131.261 129.764 131.43 129.695 131.576 129.589C131.722 129.483 131.839 129.343 131.919 129.182L132.86 127.272C132.952 127.086 133.093 126.929 133.269 126.82C133.445 126.71 133.649 126.652 133.856 126.652C134.063 126.652 134.266 126.71 134.442 126.82C134.618 126.929 134.76 127.086 134.852 127.272Z" fill="#1A80FD"/>
<path d="M159.212 132.985L160.413 135.42C160.492 135.581 160.61 135.721 160.755 135.827C160.901 135.933 161.07 136.002 161.249 136.028L163.932 136.419C164.138 136.449 164.33 136.535 164.489 136.669C164.647 136.803 164.765 136.979 164.829 137.176C164.893 137.373 164.901 137.584 164.851 137.786C164.801 137.987 164.696 138.17 164.548 138.315L162.606 140.211C162.477 140.337 162.38 140.492 162.325 140.663C162.269 140.835 162.256 141.017 162.286 141.195L162.745 143.871C162.78 144.076 162.757 144.286 162.679 144.478C162.602 144.67 162.471 144.836 162.304 144.958C162.136 145.08 161.938 145.153 161.731 145.168C161.524 145.183 161.317 145.14 161.134 145.043L158.733 143.78C158.574 143.696 158.397 143.652 158.216 143.652C158.036 143.652 157.859 143.696 157.7 143.78L155.299 145.043C155.116 145.14 154.909 145.183 154.702 145.168C154.495 145.153 154.297 145.08 154.129 144.958C153.962 144.836 153.831 144.67 153.753 144.478C153.676 144.286 153.653 144.076 153.688 143.871L154.147 141.195C154.177 141.017 154.164 140.835 154.108 140.663C154.053 140.492 153.956 140.337 153.827 140.211L151.885 138.315C151.737 138.17 151.632 137.987 151.582 137.786C151.532 137.584 151.54 137.373 151.604 137.176C151.668 136.979 151.786 136.803 151.944 136.669C152.103 136.535 152.295 136.449 152.501 136.419L155.184 136.028C155.363 136.002 155.532 135.933 155.678 135.827C155.823 135.721 155.941 135.581 156.02 135.42L157.221 132.985C157.312 132.799 157.454 132.642 157.63 132.532C157.806 132.423 158.009 132.365 158.217 132.365C158.424 132.365 158.627 132.423 158.803 132.532C158.979 132.642 159.121 132.799 159.212 132.985Z" fill="#3270E0"/>
<path d="M180.734 133.782L181.675 135.692C181.755 135.854 181.872 135.993 182.018 136.099C182.164 136.205 182.333 136.274 182.511 136.3L184.616 136.607C184.821 136.637 185.014 136.723 185.172 136.857C185.33 136.991 185.448 137.167 185.512 137.364C185.576 137.561 185.584 137.772 185.534 137.974C185.485 138.175 185.38 138.358 185.231 138.503L183.708 139.99C183.579 140.116 183.483 140.271 183.427 140.442C183.372 140.614 183.359 140.796 183.389 140.974L183.748 143.073C183.784 143.277 183.761 143.487 183.683 143.679C183.605 143.871 183.475 144.038 183.307 144.16C183.14 144.282 182.941 144.354 182.734 144.369C182.528 144.384 182.321 144.341 182.137 144.245L180.255 143.254C180.096 143.17 179.918 143.126 179.738 143.126C179.558 143.126 179.381 143.17 179.221 143.254L177.339 144.245C177.155 144.341 176.949 144.384 176.742 144.369C176.535 144.354 176.337 144.282 176.169 144.16C176.001 144.038 175.871 143.871 175.793 143.679C175.715 143.487 175.693 143.277 175.728 143.073L176.087 140.974C176.118 140.796 176.105 140.614 176.049 140.442C175.993 140.271 175.897 140.116 175.768 139.99L174.245 138.503C174.097 138.358 173.992 138.175 173.942 137.974C173.892 137.772 173.9 137.561 173.964 137.364C174.028 137.167 174.146 136.991 174.304 136.857C174.463 136.723 174.655 136.637 174.86 136.607L176.965 136.3C177.143 136.274 177.313 136.205 177.458 136.099C177.604 135.993 177.722 135.854 177.801 135.692L178.742 133.782C178.834 133.596 178.976 133.44 179.152 133.33C179.328 133.221 179.531 133.163 179.738 133.163C179.945 133.163 180.149 133.221 180.325 133.33C180.501 133.44 180.642 133.596 180.734 133.782ZM171.039 115.17L171.98 117.08C172.06 117.241 172.178 117.381 172.323 117.487C172.469 117.593 172.638 117.662 172.816 117.688L174.921 117.994C175.126 118.024 175.319 118.111 175.477 118.245C175.636 118.379 175.754 118.554 175.818 118.751C175.882 118.949 175.889 119.16 175.84 119.361C175.79 119.563 175.685 119.746 175.536 119.891L174.014 121.377C173.885 121.503 173.788 121.659 173.733 121.83C173.677 122.001 173.664 122.184 173.694 122.362L174.054 124.46C174.089 124.665 174.066 124.875 173.988 125.067C173.91 125.259 173.78 125.426 173.613 125.547C173.445 125.669 173.246 125.742 173.04 125.757C172.833 125.772 172.626 125.729 172.443 125.633L170.56 124.642C170.401 124.558 170.223 124.514 170.043 124.514C169.863 124.514 169.686 124.558 169.527 124.642L167.644 125.633C167.461 125.729 167.254 125.772 167.047 125.757C166.84 125.742 166.642 125.669 166.474 125.547C166.307 125.426 166.176 125.259 166.098 125.067C166.02 124.875 165.998 124.665 166.033 124.46L166.393 122.362C166.423 122.184 166.41 122.001 166.354 121.83C166.299 121.659 166.202 121.503 166.073 121.377L164.55 119.891C164.402 119.746 164.297 119.563 164.247 119.361C164.198 119.16 164.205 118.949 164.269 118.751C164.333 118.554 164.451 118.379 164.609 118.245C164.768 118.111 164.961 118.024 165.166 117.994L167.27 117.688C167.449 117.662 167.618 117.593 167.763 117.487C167.909 117.381 168.027 117.241 168.106 117.08L169.048 115.17C169.139 114.984 169.281 114.827 169.457 114.718C169.633 114.608 169.836 114.55 170.043 114.55C170.251 114.55 170.454 114.608 170.63 114.718C170.806 114.827 170.948 114.984 171.039 115.17Z" fill="#1A80FD"/>
<path d="M172.621 110.039C175.829 110.039 178.43 107.015 178.43 103.285C178.43 99.555 175.829 96.531 172.621 96.531C169.413 96.531 166.812 99.555 166.812 103.285C166.812 107.015 169.413 110.039 172.621 110.039Z" fill="#3270E0"/>
</g>
<path d="M173.806 140.297L184.074 155.223L192.403 158.502L186.164 163.555L174.974 159.13L164.457 143.843" fill="#F9C1BB"/>
<mask id="mask14_625_923" style="mask-type:luminance" maskUnits="userSpaceOnUse" x="164" y="140" width="29" height="24">
<path d="M173.806 140.297L184.074 155.223L192.403 158.502L186.164 163.555L174.974 159.13L164.457 143.843" fill="white"/>
</mask>
<g mask="url(#mask14_625_923)">
<path d="M166.491 156.762C171.156 156.136 180.197 150.948 180.416 149.908C180.636 148.868 169.231 148.868 169.231 148.868L165.75 151.538" fill="#ED707B"/>
</g>
<path d="M129.148 85.9529L102.687 77.7319L100.164 87.4249C97.5882 97.3259 105.511 101.914 118.517 106.309L148.066 113.791L166.735 154.752C166.735 154.752 180.27 152.257 182.437 147.76L164.773 108.192C162.675 103.492 158.688 99.5979 153.539 97.2189L141.059 91.4549" fill="#1A80FD"/>
<mask id="mask15_625_923" style="mask-type:luminance" maskUnits="userSpaceOnUse" x="99" y="77" width="84" height="78">
<path d="M129.148 85.9529L102.687 77.7319L100.164 87.4249C97.5882 97.3259 105.511 101.914 118.517 106.309L148.066 113.791L166.735 154.752C166.735 154.752 180.27 152.257 182.437 147.76L164.773 108.192C162.675 103.492 158.688 99.5979 153.539 97.2189L141.059 91.4549" fill="white"/>
</mask>
<g mask="url(#mask15_625_923)">
<path d="M125.356 86.9879C93.4624 85.4609 92.1284 101.057 100.944 104.432C109.76 107.807 89.0814 103.544 100.981 109.644C100.981 109.644 87.2024 97.8499 88.1654 96.3409C89.1294 94.8319 91.8834 75.2779 91.8834 75.2779L95.2834 74.5149L124.21 82.8329" fill="#3270E0"/>
<path d="M131.713 119.365L132.914 121.8C132.993 121.962 133.111 122.102 133.256 122.207C133.402 122.313 133.571 122.382 133.75 122.408L136.433 122.799C136.639 122.829 136.831 122.916 136.99 123.05C137.148 123.183 137.266 123.359 137.33 123.556C137.394 123.753 137.402 123.965 137.352 124.166C137.302 124.367 137.197 124.551 137.049 124.695L135.107 126.591C134.978 126.717 134.881 126.872 134.826 127.044C134.77 127.215 134.757 127.398 134.787 127.575L135.246 130.252C135.281 130.456 135.259 130.666 135.181 130.858C135.103 131.05 134.972 131.217 134.805 131.339C134.637 131.461 134.439 131.533 134.232 131.548C134.025 131.563 133.818 131.52 133.635 131.424L131.234 130.16C131.075 130.076 130.898 130.032 130.718 130.032C130.537 130.032 130.36 130.076 130.201 130.16L127.8 131.424C127.617 131.52 127.41 131.563 127.203 131.548C126.996 131.533 126.798 131.461 126.63 131.339C126.463 131.217 126.332 131.05 126.254 130.858C126.177 130.666 126.154 130.456 126.189 130.252L126.648 127.575C126.678 127.397 126.665 127.215 126.609 127.044C126.554 126.872 126.457 126.717 126.328 126.591L124.386 124.695C124.238 124.551 124.133 124.367 124.083 124.166C124.033 123.965 124.041 123.753 124.105 123.556C124.169 123.359 124.287 123.183 124.445 123.05C124.604 122.916 124.796 122.829 125.002 122.799L127.685 122.408C127.864 122.382 128.033 122.313 128.179 122.207C128.324 122.102 128.442 121.962 128.522 121.8L129.722 119.365C129.813 119.179 129.955 119.022 130.131 118.913C130.307 118.803 130.51 118.745 130.717 118.745C130.925 118.745 131.128 118.803 131.304 118.913C131.48 119.022 131.622 119.179 131.713 119.365Z" fill="#1A80FD"/>
<path d="M153.232 120.163L154.173 122.073C154.252 122.234 154.37 122.374 154.516 122.48C154.661 122.586 154.831 122.655 155.009 122.681L157.114 122.987C157.319 123.017 157.511 123.104 157.67 123.238C157.828 123.372 157.946 123.547 158.01 123.744C158.074 123.942 158.082 124.153 158.032 124.354C157.982 124.555 157.877 124.739 157.729 124.884L156.206 126.37C156.077 126.496 155.981 126.651 155.925 126.823C155.869 126.994 155.856 127.177 155.887 127.354L156.246 129.453C156.281 129.658 156.259 129.868 156.181 130.06C156.103 130.252 155.973 130.418 155.805 130.54C155.637 130.662 155.439 130.735 155.232 130.75C155.025 130.765 154.819 130.722 154.635 130.625L152.753 129.634C152.593 129.551 152.416 129.507 152.236 129.507C152.056 129.507 151.878 129.551 151.719 129.634L149.837 130.625C149.653 130.722 149.446 130.765 149.24 130.75C149.033 130.735 148.834 130.662 148.667 130.54C148.499 130.418 148.369 130.252 148.291 130.06C148.213 129.868 148.19 129.658 148.226 129.453L148.585 127.354C148.616 127.177 148.602 126.994 148.547 126.823C148.491 126.651 148.395 126.496 148.266 126.37L146.743 124.884C146.594 124.739 146.489 124.555 146.44 124.354C146.39 124.153 146.398 123.942 146.462 123.744C146.526 123.547 146.644 123.372 146.802 123.238C146.96 123.104 147.153 123.017 147.358 122.987L149.463 122.681C149.641 122.655 149.81 122.586 149.956 122.48C150.102 122.374 150.219 122.234 150.299 122.073L151.24 120.163C151.332 119.977 151.473 119.82 151.649 119.711C151.825 119.601 152.029 119.543 152.236 119.543C152.443 119.543 152.646 119.601 152.822 119.711C152.998 119.82 153.14 119.977 153.232 120.163ZM138.555 101.983L139.496 103.893C139.576 104.054 139.693 104.194 139.839 104.3C139.985 104.406 140.154 104.475 140.332 104.501L142.437 104.807C142.642 104.837 142.835 104.924 142.993 105.058C143.151 105.192 143.269 105.367 143.333 105.564C143.397 105.762 143.405 105.973 143.355 106.174C143.305 106.376 143.201 106.559 143.052 106.704L141.529 108.19C141.4 108.316 141.304 108.472 141.248 108.643C141.193 108.814 141.179 108.997 141.21 109.175L141.569 111.273C141.605 111.478 141.582 111.688 141.504 111.88C141.426 112.072 141.296 112.239 141.128 112.36C140.961 112.482 140.762 112.555 140.555 112.57C140.349 112.585 140.142 112.542 139.958 112.446L138.076 111.455C137.916 111.371 137.739 111.327 137.559 111.327C137.379 111.327 137.202 111.371 137.042 111.455L135.16 112.446C134.976 112.542 134.769 112.585 134.563 112.57C134.356 112.555 134.157 112.482 133.99 112.36C133.822 112.239 133.692 112.072 133.614 111.88C133.536 111.688 133.513 111.478 133.549 111.273L133.908 109.175C133.939 108.997 133.925 108.814 133.87 108.643C133.814 108.472 133.718 108.316 133.589 108.19L132.066 106.704C131.917 106.559 131.813 106.376 131.763 106.174C131.713 105.973 131.721 105.762 131.785 105.564C131.849 105.367 131.967 105.192 132.125 105.058C132.283 104.924 132.476 104.837 132.681 104.807L134.786 104.501C134.964 104.475 135.133 104.406 135.279 104.3C135.425 104.194 135.542 104.054 135.622 103.893L136.563 101.983C136.655 101.797 136.797 101.64 136.973 101.531C137.149 101.421 137.352 101.363 137.559 101.363C137.766 101.363 137.969 101.421 138.145 101.531C138.321 101.64 138.463 101.797 138.555 101.983ZM179.28 138.539L180.48 140.974C180.559 141.136 180.677 141.275 180.823 141.381C180.968 141.487 181.138 141.556 181.316 141.582L184 141.973C184.205 142.003 184.398 142.09 184.556 142.224C184.714 142.357 184.832 142.533 184.896 142.73C184.96 142.927 184.968 143.138 184.918 143.34C184.868 143.541 184.764 143.725 184.615 143.869L182.673 145.765C182.544 145.891 182.448 146.046 182.392 146.218C182.336 146.389 182.323 146.571 182.354 146.749L182.812 149.426C182.847 149.63 182.825 149.84 182.747 150.032C182.669 150.224 182.539 150.391 182.371 150.513C182.203 150.635 182.005 150.707 181.798 150.722C181.591 150.737 181.385 150.694 181.201 150.598L178.801 149.334C178.641 149.25 178.464 149.206 178.284 149.206C178.104 149.206 177.926 149.25 177.767 149.334L175.367 150.598C175.183 150.694 174.976 150.737 174.77 150.722C174.563 150.707 174.364 150.635 174.197 150.513C174.029 150.391 173.899 150.224 173.821 150.032C173.743 149.84 173.72 149.63 173.756 149.426L174.214 146.749C174.244 146.571 174.231 146.389 174.176 146.218C174.12 146.046 174.024 145.891 173.895 145.765L171.953 143.869C171.804 143.725 171.699 143.541 171.65 143.34C171.6 143.138 171.607 142.927 171.671 142.73C171.735 142.533 171.853 142.357 172.012 142.224C172.17 142.09 172.363 142.003 172.568 141.973L175.252 141.582C175.43 141.556 175.599 141.487 175.745 141.381C175.891 141.275 176.008 141.136 176.088 140.974L177.288 138.539C177.38 138.353 177.521 138.196 177.697 138.087C177.873 137.977 178.077 137.919 178.284 137.919C178.491 137.919 178.694 137.977 178.87 138.087C179.046 138.196 179.188 138.353 179.28 138.539Z" fill="#3270E0"/>
</g>
<path d="M128.039 43.3454L109.246 41.2993L95.1836 77.733C106.265 88.704 130.533 85.502 130.533 85.502C130.533 85.502 125.706 72.936 130.178 64.5647C132.207 60.767 131.954 56.0477 131.073 52.0247" fill="#F1F3FD"/>
<mask id="mask16_625_923" style="mask-type:luminance" maskUnits="userSpaceOnUse" x="95" y="41" width="37" height="45">
<path d="M128.039 43.3454L109.246 41.2993L95.1836 77.733C106.265 88.704 130.533 85.502 130.533 85.502C130.533 85.502 125.706 72.936 130.178 64.5647C132.207 60.767 131.954 56.0477 131.073 52.0247" fill="white"/>
</mask>
<g mask="url(#mask16_625_923)">
<path d="M112.704 52.27C106.877 74.688 102.072 84.601 123.458 87.055C144.844 89.509 87.5782 91.102 87.5782 91.102L79.4482 76.058L85.9882 69.1558L112.704 52.27Z" fill="#D6DCF2"/>
<path d="M123.418 46.3023L122.784 57.3122L125.356 56.9862L125.661 46.0298L123.418 46.3023Z" fill="#F1F3FD"/>
</g>
<path d="M122.029 33.8901C136.963 28.1898 127.813 13.2236 121.577 19.1431C115.341 25.0626 122.029 33.8901 122.029 33.8901Z" fill="#455669"/>
<path d="M107.188 23.3578C112.21 13.1188 114.296 21.1257 120.435 19.1818C120.849 18.8462 121.253 18.5079 121.704 18.1841C124.219 16.3815 125.233 18.2778 124.913 21.1081C124.849 21.6416 124.748 22.17 124.612 22.6896C125.293 26.1093 124.568 28.2549 123.068 34.1748C120.216 45.4237 101.979 33.9773 107.188 23.3578Z" fill="#455669"/>
<path d="M116.556 42.7228L115.156 33.6509L123.068 34.1752C123.466 34.2576 125.705 42.153 126.378 44.6505L124.849 45.6304L117.501 43.9561" fill="#F9C1BB"/>
<mask id="mask17_625_923" style="mask-type:luminance" maskUnits="userSpaceOnUse" x="115" y="33" width="12" height="13">
<path d="M116.556 42.7228L115.156 33.6509L123.068 34.1752C123.466 34.2576 125.705 42.153 126.378 44.6505L124.849 45.6304L117.501 43.9561" fill="white"/>
</mask>
<g mask="url(#mask17_625_923)">
<path d="M130.316 43.1248C122.133 41.08 121.718 42.6276 119.679 37.1745C118.451 33.8902 127.675 33.4707 127.675 33.4707L129.371 41.4466" fill="#ED707B"/>
</g>
<path d="M112.618 30.7785C111.863 29.6062 113 29.0946 114.565 30.8107C120.793 31.9667 124.421 25.4406 124.912 21.1084C133.308 33.7465 126.946 40.2495 119.677 37.1742" fill="#F9C1BB"/>
<mask id="mask18_625_923" style="mask-type:luminance" maskUnits="userSpaceOnUse" x="112" y="21" width="17" height="17">
<path d="M112.618 30.7785C111.863 29.6062 113 29.0946 114.565 30.8107C120.793 31.9667 124.421 25.4406 124.912 21.1084C133.308 33.7465 126.946 40.2495 119.677 37.1742" fill="white"/>
</mask>
<g mask="url(#mask18_625_923)">
<path opacity="0.27" d="M132.612 31.4543C132.864 30.5884 132.049 29.59 130.792 29.2243C129.536 28.8587 128.313 29.2643 128.061 30.1303C127.809 30.9962 128.623 31.9946 129.88 32.3603C131.137 32.7259 132.36 32.3203 132.612 31.4543Z" fill="#ED707B"/>
<path opacity="0.27" d="M121.938 30.0207C121.987 29.1281 120.957 28.3463 119.638 28.2744C118.32 28.2025 117.211 28.8677 117.162 29.7603C117.114 30.6528 118.143 31.4347 119.462 31.5066C120.781 31.5785 121.889 30.9132 121.938 30.0207Z" fill="#ED707B"/>
<path d="M127.098 28.4676C127.444 28.4554 127.714 28.1895 127.701 27.8736L127.66 26.9075C127.647 26.5916 127.355 26.3454 127.009 26.3575C126.663 26.3697 126.393 26.6356 126.406 26.9515L126.447 27.9176C126.46 28.2335 126.752 28.4797 127.098 28.4676ZM123.074 28.4456C123.42 28.4335 123.69 28.1675 123.677 27.8516L123.636 26.8856C123.623 26.5697 123.331 26.3234 122.985 26.3356C122.639 26.3477 122.369 26.6137 122.382 26.9296L122.423 27.8956C122.436 28.2115 122.727 28.4577 123.074 28.4456ZM127.109 25.0039C128.402 25.2995 128.077 25.9481 127.255 25.8115C126.433 25.6748 126.263 24.8108 127.109 25.0039ZM122.964 24.9413C121.699 25.3266 121.979 25.9051 122.787 25.7112C123.595 25.5174 123.791 24.6895 122.964 24.9413Z" fill="black"/>
<path d="M124.149 28.7847C124.168 29.234 124.618 29.0398 125.182 29.02C125.746 29.0002 126.211 29.1623 126.192 28.713C126.174 28.2638 125.701 27.9156 125.136 27.9354C124.572 27.9552 124.13 28.3354 124.149 28.7847Z" fill="#ED707B"/>
<path d="M127.495 31.0451C126.424 35.0766 122.315 33.1695 122.388 30.6354C122.393 30.569 122.418 30.5059 122.461 30.4549C122.504 30.4038 122.562 30.3675 122.626 30.351C123.205 30.177 124.876 29.8326 127.28 30.6753C127.356 30.6984 127.42 30.7494 127.46 30.818C127.5 30.8866 127.513 30.9677 127.495 31.0451Z" fill="#C1525F"/>
<mask id="mask19_625_923" style="mask-type:luminance" maskUnits="userSpaceOnUse" x="122" y="30" width="6" height="4">
<path d="M127.495 31.0451C126.424 35.0766 122.315 33.1695 122.388 30.6354C122.393 30.569 122.418 30.5059 122.461 30.4549C122.504 30.4038 122.562 30.3675 122.626 30.351C123.205 30.177 124.876 29.8326 127.28 30.6753C127.356 30.6984 127.42 30.7494 127.46 30.818C127.5 30.8866 127.513 30.9677 127.495 31.0451Z" fill="white"/>
</mask>
<g mask="url(#mask19_625_923)">
<path d="M126.382 33.6173C126.602 32.6081 125.791 31.5742 124.57 31.3079C123.349 31.0416 122.181 31.6438 121.961 32.6529C121.741 33.662 122.552 34.696 123.773 34.9623C124.994 35.2286 126.162 34.6264 126.382 33.6173Z" fill="#993443"/>
<path d="M126.751 30.3506C126.728 30.6196 126.669 30.9831 126.586 31.0442C126.078 31.4211 123.795 31.0807 123.5 30.825C123.418 30.7538 123.478 29.8857 123.478 29.8857L126.413 30.1804" fill="#F1F3FD"/>
</g>
</g>
<path d="M118.028 30.6569C109.678 25.3896 107.991 35.2638 116.728 34.7799L118.028 30.6569Z" fill="#F9C1BB"/>
<path d="M114.825 31.3696C114.541 31.406 114.281 31.5479 114.097 31.7671C114.056 31.8106 114.029 31.8654 114.02 31.9243C114.021 31.9716 114.036 32.0175 114.062 32.0567C114.089 32.0959 114.126 32.1267 114.169 32.1455C114.26 32.186 114.358 32.2105 114.457 32.2179" stroke="#ED707B" stroke-width="6" stroke-linecap="round" stroke-linejoin="round"/>
<path d="M99.866 51.2622L91.415 71.701L78.669 99.926C78.669 99.926 75.636 106.212 67.696 104.375C62.6158 103.2 62.3318 109.601 81.727 107.376C81.727 107.376 83.588 109.301 85.25 109.416C87.049 109.54 83.245 107.087 83.868 104.375C84.491 101.664 99.312 79.621 99.312 79.621L112.705 52.2703L99.866 51.2622Z" fill="#F9C1BB"/>
<mask id="mask20_625_923" style="mask-type:luminance" maskUnits="userSpaceOnUse" x="64" y="51" width="49" height="59">
<path d="M99.866 51.2622L91.415 71.701L78.669 99.926C78.669 99.926 75.636 106.212 67.696 104.375C62.6158 103.2 62.3318 109.601 81.727 107.376C81.727 107.376 83.588 109.301 85.25 109.416C87.049 109.54 83.245 107.087 83.868 104.375C84.491 101.664 99.312 79.621 99.312 79.621L112.705 52.2703L99.866 51.2622Z" fill="white"/>
</mask>
<g mask="url(#mask20_625_923)">
<path d="M83.8438 60.866C89.6198 70.4836 107.649 67.5822 107.649 67.5822L94.5317 56.6118L88.7318 60.866" fill="#ED707B"/>
</g>
<path d="M110.162 41.3634C107.253 40.5516 104.209 42.3135 102.536 44.8318L91.707 60.7687C98.015 67.3149 107.649 67.5823 107.649 67.5823L113.286 53.0616C113.286 53.0616 115.845 42.9491 110.162 41.3634Z" fill="#FFCE39"/>
<path d="M178.518 163.829L174.977 159.13L185.09 161.82C185.09 161.82 183.531 157.928 188.479 156.762C188.479 156.762 202.802 161.39 204.301 163.272C206.185 165.638 204.041 167.413 195.532 166.552C191.56 166.151 184.241 165.456 181.008 165.151C179.989 165.055 179.077 164.57 178.518 163.829Z" fill="#455669"/>
<path d="M112.434 41.9032L115.66 39.8843L124.76 46.302C124.76 46.302 121.084 49.7976 121.143 51.9757L112.434 41.9032Z" fill="#F1F3FD"/>
<path d="M126.724 51.2619C126.724 51.2619 126.789 47.8055 124.762 46.302L125.446 41.2949L128.04 43.3452L126.724 51.2619Z" fill="#F1F3FD"/>
<path d="M124.501 49.7239C124.726 49.7239 124.908 49.5413 124.908 49.316C124.908 49.0908 124.726 48.9082 124.501 48.9082C124.276 48.9082 124.094 49.0908 124.094 49.316C124.094 49.5413 124.276 49.7239 124.501 49.7239Z" fill="black"/>
<path d="M124.251 54.4626C124.476 54.4626 124.658 54.28 124.658 54.0548C124.658 53.8296 124.476 53.647 124.251 53.647C124.026 53.647 123.844 53.8296 123.844 54.0548C123.844 54.28 124.026 54.4626 124.251 54.4626Z" fill="black"/>
<path d="M108.012 96.5241C119.121 96.8211 119.383 87.7971 119.383 87.7971L108.012 96.5241Z" fill="#1A80FD"/>
</svg>
