<svg width="225" height="175" viewBox="0 0 225 175" fill="none" xmlns="http://www.w3.org/2000/svg">
<path d="M34.6476 174.224C53.6 174.224 68.963 158.842 68.963 139.867C68.963 120.892 53.6 105.51 34.6476 105.51C15.6956 105.51 0.332031 120.892 0.332031 139.867C0.332031 158.842 15.6956 174.224 34.6476 174.224Z" fill="#FFCE39"/>
<mask id="mask0_625_740" style="mask-type:luminance" maskUnits="userSpaceOnUse" x="0" y="105" width="69" height="70">
<path d="M34.6476 174.224C53.6 174.224 68.963 158.842 68.963 139.867C68.963 120.892 53.6 105.51 34.6476 105.51C15.6956 105.51 0.332031 120.892 0.332031 139.867C0.332031 158.842 15.6956 174.224 34.6476 174.224Z" fill="white"/>
</mask>
<g mask="url(#mask0_625_740)">
<path d="M32.5539 172.128C51.506 172.128 66.869 156.746 66.869 137.771C66.869 118.796 51.506 103.414 32.5539 103.414C13.6019 103.414 -1.76172 118.796 -1.76172 137.771C-1.76172 156.746 13.6019 172.128 32.5539 172.128Z" fill="#FCB006"/>
</g>
<path d="M34.6472 167.29C49.774 167.29 62.037 155.012 62.037 139.867C62.037 124.722 49.774 112.445 34.6472 112.445C19.5204 112.445 7.25781 124.722 7.25781 139.867C7.25781 155.012 19.5204 167.29 34.6472 167.29Z" fill="#FFCE39"/>
<path d="M38.9467 140.419C38.9469 139.775 38.7767 139.143 38.4533 138.587C38.13 138.031 37.665 137.571 37.1057 137.253V122.088H34.5453V136.859C33.8377 137.012 33.1918 137.372 32.69 137.894C32.1883 138.416 31.8535 139.076 31.7285 139.789H21.8867V143.093H32.8429C33.3205 143.536 33.9086 143.841 34.5453 143.978V146.448H37.1057V143.584C37.665 143.266 38.13 142.806 38.4533 142.25C38.7767 141.694 38.9469 141.062 38.9467 140.419Z" fill="#F1F3FD"/>
<path d="M66.3895 99.084C72.5255 115.923 61.5205 140.333 61.5205 140.333L66.3895 99.084Z" fill="#43B195"/>
<path d="M54.865 86.2871C66.436 96.5061 76.066 113.369 58.16 140.18C58.16 140.18 33.46 116.676 54.865 86.2871Z" fill="#43B195"/>
<mask id="mask1_625_740" style="mask-type:luminance" maskUnits="userSpaceOnUse" x="46" y="86" width="23" height="55">
<path d="M54.865 86.2871C66.436 96.5061 76.066 113.369 58.16 140.18C58.16 140.18 33.46 116.676 54.865 86.2871Z" fill="white"/>
</mask>
<g mask="url(#mask1_625_740)">
<path d="M54.262 82.135C40.5589 103.9 60.267 103.213 60.892 121.773C61.517 140.333 43.5273 106.888 43.5273 106.888L47.495 86.242L49.229 86.253" fill="#37A082"/>
</g>
<path d="M73.7882 63.1025C81.4522 80.573 85.8552 104.746 63.9232 126.837C63.9232 126.837 47.9643 87.597 73.7882 63.1025Z" fill="#FBD164"/>
<mask id="mask2_625_740" style="mask-type:luminance" maskUnits="userSpaceOnUse" x="59" y="63" width="22" height="64">
<path d="M73.7882 63.1025C81.4522 80.573 85.8552 104.746 63.9232 126.837C63.9232 126.837 47.9643 87.597 73.7882 63.1025Z" fill="white"/>
</mask>
<g mask="url(#mask2_625_740)">
<path d="M72.0002 58.7148L73.7892 63.1027C73.7892 63.1027 79.6782 99.006 66.3192 123.674C52.9612 148.342 99.0622 85.286 99.0622 85.286L81.9852 63.8771L72.0002 58.7148Z" fill="#F9B864"/>
</g>
<path d="M24.332 90.5691C40.3782 93.1131 59.087 102.108 61.56 133.237C61.56 133.237 26.2244 126.414 24.332 90.5691Z" fill="#FBD164"/>
<mask id="mask3_625_740" style="mask-type:luminance" maskUnits="userSpaceOnUse" x="24" y="90" width="38" height="44">
<path d="M24.332 90.5691C40.3782 93.1131 59.087 102.108 61.56 133.237C61.56 133.237 26.2244 126.414 24.332 90.5691Z" fill="white"/>
</mask>
<g mask="url(#mask3_625_740)">
<path d="M15.2627 96.5531L24.3319 90.5691C24.3319 90.5691 35.1399 122.635 60.515 130.58C85.89 138.526 7.07812 143.561 7.07812 143.561L13.3293 97.7181" fill="#F9B864"/>
</g>
<path d="M95.8205 89.4741C98.4515 103.779 95.1245 122.444 62.9155 134.777C62.9155 134.777 58.4135 102.875 95.8205 89.4741Z" fill="#43B195"/>
<mask id="mask4_625_740" style="mask-type:luminance" maskUnits="userSpaceOnUse" x="62" y="89" width="35" height="46">
<path d="M95.8205 89.4741C98.4515 103.779 95.1245 122.444 62.9155 134.777C62.9155 134.777 58.4135 102.875 95.8205 89.4741Z" fill="white"/>
</mask>
<g mask="url(#mask4_625_740)">
<path d="M54.938 123.925C82.134 136.658 95.509 105.27 95.509 105.27L98.267 131.39L79.735 142.077L50.75 131.836L51.815 125.687" fill="#37A082"/>
</g>
<path d="M44.4218 165.102L77.671 165.305L83.97 127.432L38.5859 127.154L44.4218 165.102Z" fill="#1A80FD"/>
<mask id="mask5_625_740" style="mask-type:luminance" maskUnits="userSpaceOnUse" x="38" y="127" width="46" height="39">
<path d="M44.4218 165.102L77.671 165.305L83.97 127.432L38.5859 127.154L44.4218 165.102Z" fill="white"/>
</mask>
<g mask="url(#mask5_625_740)">
<path d="M34.8639 131.739C93.615 135.604 73.479 165.279 73.479 165.279L83.731 166.401L92.359 129.786L83.998 122.599L30.4883 126.633" fill="#3270E0"/>
</g>
<path d="M34.9048 125.579L34.8672 131.734L87.763 132.057L87.801 125.902L34.9048 125.579Z" fill="#1A80FD"/>
<path d="M72.884 36.811H19.6877C18.9672 36.8115 18.2764 37.0982 17.7672 37.608C17.258 38.1177 16.9722 38.8089 16.9727 39.5294V63.9072C16.9722 64.6277 17.258 65.3189 17.7672 65.8287C18.2764 66.3385 18.9672 66.6251 19.6877 66.6256H54.463C55.864 68.3972 57.463 70.415 58.625 71.881C59.162 72.559 60.245 72.17 60.245 71.305V66.6256H72.884C73.605 66.6251 74.296 66.3385 74.805 65.8287C75.314 65.3189 75.6 64.6277 75.599 63.9072V39.5295C75.6 38.809 75.314 38.1178 74.805 37.608C74.296 37.0982 73.605 36.8115 72.884 36.811Z" fill="#1A80FD"/>
<mask id="mask6_625_740" style="mask-type:luminance" maskUnits="userSpaceOnUse" x="16" y="36" width="60" height="37">
<path d="M72.884 36.811H19.6877C18.9672 36.8115 18.2764 37.0982 17.7672 37.608C17.258 38.1177 16.9722 38.8089 16.9727 39.5294V63.9072C16.9722 64.6277 17.258 65.3189 17.7672 65.8287C18.2764 66.3385 18.9672 66.6251 19.6877 66.6256H54.463C55.864 68.3972 57.463 70.415 58.625 71.881C59.162 72.559 60.245 72.17 60.245 71.305V66.6256H72.884C73.605 66.6251 74.296 66.3385 74.805 65.8287C75.314 65.3189 75.6 64.6277 75.599 63.9072V39.5295C75.6 38.809 75.314 38.1178 74.805 37.608C74.296 37.0982 73.605 36.8115 72.884 36.811Z" fill="white"/>
</mask>
<g mask="url(#mask6_625_740)">
<path d="M75.6 33.1689C72.486 73.306 7.94531 66.1899 7.94531 66.1899L48.7726 86.401L88.692 76.722L79.878 33.1689" fill="#3270E0"/>
</g>
<path d="M28.8096 53.6184C30.3073 53.6184 31.5215 52.4028 31.5215 50.9032C31.5215 49.4036 30.3073 48.188 28.8096 48.188C27.3118 48.188 26.0977 49.4036 26.0977 50.9032C26.0977 52.4028 27.3118 53.6184 28.8096 53.6184Z" fill="#F1F3FD"/>
<path d="M40.1455 53.6184C41.6433 53.6184 42.8574 52.4028 42.8574 50.9032C42.8574 49.4036 41.6433 48.188 40.1455 48.188C38.6478 48.188 37.4336 49.4036 37.4336 50.9032C37.4336 52.4028 38.6478 53.6184 40.1455 53.6184Z" fill="#F1F3FD"/>
<path d="M51.485 53.6184C52.983 53.6184 54.197 52.4028 54.197 50.9032C54.197 49.4036 52.983 48.188 51.485 48.188C49.988 48.188 48.7734 49.4036 48.7734 50.9032C48.7734 52.4028 49.988 53.6184 51.485 53.6184Z" fill="#F1F3FD"/>
<path d="M62.8214 53.6184C64.3194 53.6184 65.5334 52.4028 65.5334 50.9032C65.5334 49.4036 64.3194 48.188 62.8214 48.188C61.3244 48.188 60.1094 49.4036 60.1094 50.9032C60.1094 52.4028 61.3244 53.6184 62.8214 53.6184Z" fill="#F1F3FD"/>
<path d="M221.46 101.008C221.461 99.7371 220.957 98.5191 220.059 97.6201C219.161 96.7211 217.943 96.2161 216.673 96.2151H115.467C114.197 96.2161 112.978 96.7211 112.081 97.6201C111.183 98.5191 110.679 99.7371 110.68 101.008V106.887H221.46V101.008ZM110.68 106.887V165.569C110.679 166.839 111.183 168.058 112.081 168.957C112.978 169.856 114.197 170.361 115.467 170.362H216.673C217.943 170.361 219.161 169.856 220.059 168.957C220.957 168.058 221.461 166.839 221.46 165.569V106.887H110.68Z" fill="#F1F3FD"/>
<path d="M116.697 102.751C117.43 102.751 118.023 102.157 118.023 101.423C118.023 100.69 117.43 100.096 116.697 100.096C115.965 100.096 115.371 100.69 115.371 101.423C115.371 102.157 115.965 102.751 116.697 102.751Z" fill="#FF6660"/>
<path d="M122.271 102.751C123.004 102.751 123.597 102.157 123.597 101.423C123.597 100.69 123.004 100.096 122.271 100.096C121.539 100.096 120.945 100.69 120.945 101.423C120.945 102.157 121.539 102.751 122.271 102.751Z" fill="#FFCE39"/>
<path d="M127.842 102.751C128.574 102.751 129.168 102.157 129.168 101.423C129.168 100.69 128.574 100.096 127.842 100.096C127.109 100.096 126.516 100.69 126.516 101.423C126.516 102.157 127.109 102.751 127.842 102.751Z" fill="#43B195"/>
<path d="M210.738 112.8H121.4C120.293 112.8 119.396 113.698 119.396 114.806V161.424C119.396 162.531 120.293 163.429 121.4 163.429H210.738C211.846 163.429 212.744 162.531 212.744 161.424V114.806C212.744 113.698 211.846 112.8 210.738 112.8Z" fill="#9563F7"/>
<mask id="mask7_625_740" style="mask-type:luminance" maskUnits="userSpaceOnUse" x="119" y="112" width="94" height="52">
<path d="M210.738 112.8H121.4C120.293 112.8 119.396 113.698 119.396 114.806V161.424C119.396 162.531 120.293 163.429 121.4 163.429H210.738C211.846 163.429 212.744 162.531 212.744 161.424V114.806C212.744 113.698 211.846 112.8 210.738 112.8Z" fill="white"/>
</mask>
<g mask="url(#mask7_625_740)">
<path d="M210.472 107.667C212.743 161.423 106.841 165.609 106.841 165.609L226.652 184.663L234.481 133.288" fill="#8656EA"/>
</g>
<path opacity="0.36" d="M166.071 150.624C174.248 150.624 180.877 143.979 180.877 135.782C180.877 127.585 174.248 120.94 166.071 120.94C157.894 120.94 151.266 127.585 151.266 135.782C151.266 143.979 157.894 150.624 166.071 150.624Z" fill="#F1F3FD"/>
<path d="M161.945 135.782V130.313C161.945 130.15 161.988 129.99 162.069 129.849C162.15 129.707 162.267 129.59 162.409 129.508C162.55 129.426 162.71 129.383 162.873 129.383C163.036 129.383 163.196 129.426 163.338 129.508L168.062 132.242L172.786 134.976C172.927 135.058 173.044 135.176 173.126 135.317C173.207 135.458 173.25 135.619 173.25 135.782C173.25 135.945 173.207 136.105 173.126 136.247C173.044 136.388 172.927 136.506 172.786 136.588L168.062 139.322L163.338 142.056C163.196 142.138 163.036 142.181 162.873 142.18C162.71 142.18 162.55 142.137 162.409 142.056C162.267 141.974 162.15 141.856 162.069 141.715C161.988 141.574 161.945 141.413 161.945 141.25V135.782Z" fill="#F1F3FD"/>
<path d="M131.821 63.5592C131.801 55.4988 124.986 48.9815 116.6 49.0025C108.214 49.0235 101.432 55.5748 101.452 63.6352C101.461 66.6 102.402 69.4869 104.143 71.887C100.942 73.784 98.532 76.78 97.486 80.336C89.255 80.527 82.648 86.999 82.668 94.952C82.688 103.012 89.503 109.53 97.889 109.509C104.828 109.491 110.656 104.999 112.454 98.884C120.686 98.693 127.292 92.221 127.272 84.268C127.263 81.303 126.322 78.416 124.581 76.016C128.93 73.44 131.834 68.8288 131.821 63.5592Z" fill="#455669"/>
<path d="M126.311 167.777L146.506 167.727L137.729 111.751L126.317 95.4819L118.598 115.894L126.311 167.777Z" fill="#F9C1BB"/>
<path d="M116.562 144.683C133.688 146 144.423 136.962 144.423 136.962L136.999 101.39C136.649 99.712 135.731 98.206 134.4 97.126C133.068 96.045 131.406 95.457 129.691 95.461L117.311 95.492L116.562 144.683Z" fill="#43B195"/>
<mask id="mask8_625_740" style="mask-type:luminance" maskUnits="userSpaceOnUse" x="116" y="95" width="29" height="50">
<path d="M116.562 144.683C133.688 146 144.423 136.962 144.423 136.962L136.999 101.39C136.649 99.712 135.731 98.206 134.4 97.126C133.068 96.045 131.406 95.457 129.691 95.461L117.311 95.492L116.562 144.683Z" fill="white"/>
</mask>
<g mask="url(#mask8_625_740)">
<path d="M117.915 149.973C127.005 150.351 138.511 131.84 133.606 120.046C128.702 108.251 116.51 123.912 116.51 123.912L110.145 133.342L109.09 144.842" fill="#37A082"/>
<path d="M120.069 138.56C124.796 139.967 147.217 134.868 147.217 134.868L144.448 147.283L104.742 147.382" fill="#F1F3FD"/>
</g>
<path d="M129.272 95.4619L84.3984 95.8719L55.3594 167.075L110.825 166.937L118.672 144.678C118.672 144.678 135.854 140.019 133.609 120.046L132.484 113.667" fill="#43B195"/>
<mask id="mask9_625_740" style="mask-type:luminance" maskUnits="userSpaceOnUse" x="55" y="95" width="79" height="73">
<path d="M129.272 95.4619L84.3984 95.8719L55.3594 167.075L110.825 166.937L118.672 144.678C118.672 144.678 135.854 140.019 133.609 120.046L132.484 113.667" fill="white"/>
</mask>
<g mask="url(#mask9_625_740)">
<path d="M111.033 115.43L82.6758 87.734L105.202 65.0679L127.84 87.621L117.501 114.31C116.408 116.952 113.122 117.581 111.033 115.43Z" fill="#F1F3FD"/>
<path d="M110.69 108.6L89.5 87.9031L106.332 70.9661L123.249 87.8191L115.523 107.763C114.707 109.737 112.251 110.207 110.69 108.6Z" fill="#F9C1BB"/>
<path d="M93.0059 121.54C81.0519 150.777 79.9669 157.657 96.5409 157.725C113.115 157.794 101.772 160.256 101.772 160.256C101.772 160.256 93.5469 166.152 105.295 166.95C117.042 167.749 66.6059 174.557 66.6059 174.557L52.7109 169.246L68.6349 131.774L93.8769 120.256" fill="#37A082"/>
<path d="M98.8203 119.897L98.8703 139.591L130.464 128.273L98.8203 119.897Z" fill="#1A80FD"/>
<mask id="mask10_625_740" style="mask-type:luminance" maskUnits="userSpaceOnUse" x="98" y="119" width="33" height="21">
<path d="M98.8203 119.897L98.8703 139.591L130.464 128.273L98.8203 119.897Z" fill="white"/>
</mask>
<g mask="url(#mask10_625_740)">
<path d="M103.291 112.912L94.6377 112.934L94.7187 145.484L103.372 145.462L103.291 112.912Z" fill="#475189"/>
</g>
</g>
<path d="M65 160.458L90.578 118.196L72.337 109.67L39.832 158.477L65 160.458Z" fill="#F9C1BB"/>
<mask id="mask11_625_740" style="mask-type:luminance" maskUnits="userSpaceOnUse" x="39" y="109" width="52" height="52">
<path d="M65 160.458L90.578 118.196L72.337 109.67L39.832 158.477L65 160.458Z" fill="white"/>
</mask>
<g mask="url(#mask11_625_740)">
<path d="M41.2891 141.432C63.978 149.331 76.486 146.266 78.58 144.778C84.177 140.801 55.275 133.513 55.275 133.513L47.8771 131.826" fill="#ED707B"/>
</g>
<path d="M89.287 95.7839L83.147 95.8289C81.043 95.7579 78.957 96.2329 77.091 97.2069C75.226 98.1819 73.644 99.6229 72.5 101.39L50.668 135.109C50.668 135.109 65.75 147.709 77.643 144.162L93.002 121.54" fill="#43B195"/>
<mask id="mask12_625_740" style="mask-type:luminance" maskUnits="userSpaceOnUse" x="50" y="95" width="44" height="50">
<path d="M89.287 95.7839L83.147 95.8289C81.043 95.7579 78.957 96.2329 77.091 97.2069C75.226 98.1819 73.644 99.6229 72.5 101.39L50.668 135.109C50.668 135.109 65.75 147.709 77.643 144.162L93.002 121.54" fill="white"/>
</mask>
<g mask="url(#mask12_625_740)">
<path d="M55.246 122.487C40.3054 128.672 74.107 141.512 83.864 139.911C93.62 138.311 76.961 149.543 76.961 149.543L43.5586 138.594" fill="#F1F3FD"/>
</g>
<path d="M42.3754 154.658C41.6482 155.75 39.2631 158.834 38.8799 161.272C38.0577 166.503 42.1039 171.23 47.3928 171.216L90.271 171.109C95.1 171.097 101.768 160.256 101.768 160.256C101.768 160.256 105.885 160.795 107.03 157.606C107.03 157.606 110.597 157.807 111.468 155.168C111.468 155.168 113.429 157.009 114.478 157.9C115.381 158.666 118.818 155.974 113.126 150.954L108.01 146.885C108.01 146.885 110.293 145.75 111.611 146.077C112.929 146.403 115.258 149.378 117.652 147.93C119.241 146.968 113.027 141.897 111.05 141.353C109.073 140.808 99.969 142.809 99.092 143.361C98.215 143.912 90.456 157.537 90.456 157.537L58.142 154.865" fill="#F9C1BB"/>
<path d="M100.129 96.684L108.865 78.375L121.483 84.738L114.921 98.189" fill="#F9C1BB"/>
<mask id="mask13_625_740" style="mask-type:luminance" maskUnits="userSpaceOnUse" x="100" y="78" width="22" height="21">
<path d="M100.129 96.684L108.865 78.375L121.483 84.738L114.921 98.189" fill="white"/>
</mask>
<g mask="url(#mask13_625_740)">
<path d="M111.809 82.6279C121.364 87.3449 113.893 93.2659 115.569 98.5649C117.246 103.864 124.82 86.8399 124.82 86.8399L122.403 82.8569L111.809 82.6279Z" fill="#ED707B"/>
</g>
<path d="M114.047 86.109C129.955 95.617 135.191 68.8316 122.821 58.8989C121.5 60.4538 113.333 62.6048 110.554 62.2987C103.805 61.5552 110.18 63.6468 110.156 63.6468C111.381 65.7777 110.876 66.8146 110.883 69.4498C110.893 73.561 111.711 73.557 108.986 76.216L108.724 80.833C109.001 81.794 109.451 79.25 109.451 79.25" fill="#F9C1BB"/>
<mask id="mask14_625_740" style="mask-type:luminance" maskUnits="userSpaceOnUse" x="107" y="58" width="23" height="31">
<path d="M114.047 86.109C129.955 95.617 135.191 68.8316 122.821 58.8989C121.5 60.4538 113.333 62.6048 110.554 62.2987C103.805 61.5552 110.18 63.6468 110.156 63.6468C111.381 65.7777 110.876 66.8146 110.883 69.4498C110.893 73.561 111.711 73.557 108.986 76.216L108.724 80.833C109.001 81.794 109.451 79.25 109.451 79.25" fill="white"/>
</mask>
<g mask="url(#mask14_625_740)">
<path opacity="0.27" d="M133.163 79.2761C135.665 79.2761 137.693 77.2451 137.693 74.7401C137.693 72.2361 135.665 70.2051 133.163 70.2051C130.661 70.2051 128.633 72.2361 128.633 74.7401C128.633 77.2451 130.661 79.2761 133.163 79.2761Z" fill="#ED707B"/>
<path d="M126.094 68.3834C126.328 68.3235 126.577 68.3591 126.785 68.4824C126.992 68.6056 127.143 68.8064 127.203 69.0406L127.585 70.5359C127.645 70.7699 127.609 71.0179 127.486 71.2259C127.363 71.4339 127.162 71.5839 126.928 71.6439C126.694 71.7039 126.445 71.6689 126.237 71.5449C126.029 71.4219 125.879 71.2209 125.819 70.9869L125.437 69.4923C125.377 69.2581 125.412 69.0097 125.536 68.8018C125.659 68.5938 125.86 68.4433 126.094 68.3834Z" fill="black"/>
<path d="M125.781 66.2433C127.718 66.3087 127.59 67.3086 126.377 67.3468C125.163 67.385 124.516 66.2006 125.781 66.2433Z" fill="black"/>
<path d="M118.598 69.7025C118.832 69.6426 119.08 69.6782 119.288 69.8014C119.496 69.9247 119.647 70.1251 119.707 70.3601L120.089 71.8541C120.149 72.0891 120.113 72.3371 119.99 72.5451C119.867 72.7531 119.666 72.9031 119.432 72.9631C119.198 73.0231 118.949 72.9871 118.741 72.8641C118.533 72.7411 118.383 72.5401 118.323 72.3061L117.941 70.8111C117.911 70.6951 117.904 70.5751 117.921 70.4561C117.938 70.3381 117.979 70.2241 118.04 70.1211C118.101 70.0181 118.181 69.9279 118.277 69.8561C118.373 69.7843 118.482 69.7321 118.598 69.7025Z" fill="black"/>
<path d="M118.287 67.5622C120.224 67.6275 120.096 68.6275 118.883 68.6657C117.669 68.7039 117.022 67.5195 118.287 67.5622ZM115.079 68.9064C113.411 69.8935 114.003 70.709 115.086 70.16C116.168 69.6115 116.169 68.2615 115.079 68.9064Z" fill="black"/>
<path d="M121.625 71.487C121.803 72.181 122.377 71.741 123.171 71.538C123.966 71.335 124.681 71.445 124.503 70.751C124.326 70.057 123.538 69.6584 122.744 69.8617C121.949 70.065 121.448 70.793 121.625 71.487Z" fill="#ED707B"/>
<path d="M127.634 75.3569C127.424 83.4029 119.545 81.3129 118.639 76.4789C118.618 76.3559 118.635 76.2309 118.688 76.1179C118.741 76.0059 118.827 75.9119 118.935 75.8509C119.864 75.3049 122.613 74.0299 127.112 74.7349C127.259 74.7579 127.393 74.8339 127.489 74.9479C127.585 75.0619 127.637 75.2069 127.634 75.3569Z" fill="#C1525F"/>
<mask id="mask15_625_740" style="mask-type:luminance" maskUnits="userSpaceOnUse" x="118" y="74" width="10" height="7">
<path d="M127.634 75.3569C127.424 83.4029 119.545 81.3129 118.639 76.4789C118.618 76.3559 118.635 76.2309 118.688 76.1179C118.741 76.0059 118.827 75.9119 118.935 75.8509C119.864 75.3049 122.613 74.0299 127.112 74.7349C127.259 74.7579 127.393 74.8339 127.489 74.9479C127.585 75.0619 127.637 75.2069 127.634 75.3569Z" fill="white"/>
</mask>
<g mask="url(#mask15_625_740)">
<path d="M126.716 81.274C127.068 79.317 125.578 77.41 123.387 77.016C121.197 76.621 119.135 77.888 118.783 79.846C118.43 81.803 119.92 83.71 122.111 84.104C124.302 84.499 126.363 83.232 126.716 81.274Z" fill="#993443"/>
<path d="M126.065 74.3159C126.134 74.8349 126.18 75.5459 126.062 75.6929C125.338 76.5969 121.253 76.7999 120.639 76.4249C120.468 76.3199 120.219 74.6509 120.219 74.6509L125.412 74.1189" fill="#F1F3FD"/>
</g>
</g>
<path d="M105.223 55.8542C104.318 55.68 103.399 55.5935 102.478 55.5957C94.4275 55.6159 87.9166 62.1665 87.9376 70.227C87.9396 72.349 88.4065 74.446 89.3035 76.369C90.2015 78.293 91.5085 79.997 93.1335 81.362L107.44 80.836L109.972 77.942C112.698 75.282 117.102 74.265 117.092 70.154C117.086 67.6156 116.415 65.123 115.146 62.9246C115.17 62.9245 115.192 62.9294 115.216 62.9293C118.012 62.9223 120.427 61.8638 121.747 60.3089C122.413 59.5248 122.82 58.6231 122.818 57.6491C122.811 56.9241 122.602 56.2153 122.214 55.6027" fill="#455669"/>
<path d="M117.616 171.537L74.375 171.645V171.642C74.372 170.327 74.891 169.064 75.819 168.131C76.747 167.199 78.008 166.673 79.323 166.669L117.603 166.574L117.616 171.537Z" fill="#334272"/>
<path d="M168.251 171.411L108.906 171.559L130.688 134.985C131.743 133.214 134.606 131.773 137.083 131.767L188.98 131.637C191.457 131.631 192.61 133.062 191.555 134.833L170.553 170.098C170.316 170.497 169.979 170.827 169.575 171.058C169.172 171.288 168.716 171.409 168.251 171.411Z" fill="#475189"/>
<path d="M158.788 150.26C157.27 150.264 156.563 149.387 157.21 148.301C157.547 147.734 158.189 147.227 158.939 146.866C158.292 146.682 157.622 146.593 156.95 146.602C153.414 146.611 149.326 148.668 147.82 151.196C146.314 153.725 147.96 155.768 151.497 155.759C155.033 155.75 159.121 153.693 160.627 151.164C160.918 150.699 161.101 150.174 161.164 149.628C160.434 150.013 159.581 150.258 158.788 150.26Z" fill="#F1F3FD"/>
<path d="M106.035 78.2729C106.922 79.9229 107.388 81.7659 107.392 83.6399C107.409 90.3219 101.618 95.7529 94.4589 95.7709C87.2989 95.7889 81.4819 90.3869 81.4649 83.7049C81.4499 77.8579 85.8819 72.9689 91.7859 71.8259" fill="#455669"/>
<path d="M116.391 75.207C105.107 64.5159 101.056 80.092 111.27 82.253L116.391 75.207Z" fill="#F9C1BB"/>
<path d="M110.589 75.1079C110.19 75.3799 109.905 75.7889 109.789 76.2569" stroke="#ED707B" stroke-width="6" stroke-linecap="round" stroke-linejoin="round"/>
<path d="M195.798 92.3331L167.449 84.2091L195.798 75.1301L224.146 84.2091L195.798 92.3331Z" fill="#455669"/>
<mask id="mask16_625_740" style="mask-type:luminance" maskUnits="userSpaceOnUse" x="167" y="75" width="58" height="18">
<path d="M195.798 92.3331L167.449 84.2091L195.798 75.1301L224.146 84.2091L195.798 92.3331Z" fill="white"/>
</mask>
<g mask="url(#mask16_625_740)">
<path d="M159.355 82.488C185.556 93.219 179.889 81.61 192.999 84.724C206.11 87.837 187.938 93.626 187.938 93.626L169.478 94.71L163.226 87.555M197.884 73.019C194.71 73.954 195.797 75.13 195.797 75.13L228.427 90.007L223.445 78.408L211.88 76.359" fill="#2F4354"/>
</g>
<path d="M195.8 83.3C188.508 83.3 182.598 84.711 182.598 86.452V96.715H182.682C182.668 96.363 208.665 96.363 208.918 96.715H209.002V86.452C209.002 84.711 203.091 83.3 195.8 83.3Z" fill="#455669"/>
<mask id="mask17_625_740" style="mask-type:luminance" maskUnits="userSpaceOnUse" x="182" y="83" width="28" height="14">
<path d="M195.8 83.3C188.508 83.3 182.598 84.711 182.598 86.452V96.715H182.682C182.668 96.363 208.665 96.363 208.918 96.715H209.002V86.452C209.002 84.711 203.091 83.3 195.8 83.3Z" fill="white"/>
</mask>
<g mask="url(#mask17_625_740)">
<path d="M179.566 94.3539C184.06 82.4429 204.68 84.0309 208.91 86.4129C213.139 88.7949 204.415 80.8549 204.415 80.8549L182.209 80.3259L178.772 83.2369" fill="#2F4354"/>
</g>
<path d="M175.612 81.438H175.102V92.405H175.612V81.438Z" fill="#FFCE39"/>
<path d="M176.682 99.366L175.944 92.929H174.765L174.027 99.366C173.981 99.566 173.981 99.773 174.026 99.973C174.071 100.173 174.161 100.36 174.289 100.52C174.416 100.68 174.578 100.81 174.763 100.899C174.948 100.988 175.15 101.034 175.355 101.034C175.559 101.034 175.762 100.988 175.946 100.899C176.131 100.81 176.293 100.68 176.42 100.52C176.548 100.36 176.638 100.173 176.683 99.973C176.729 99.773 176.728 99.566 176.682 99.366Z" fill="#FFCE39"/>
<mask id="mask18_625_740" style="mask-type:luminance" maskUnits="userSpaceOnUse" x="173" y="92" width="4" height="10">
<path d="M176.682 99.366L175.944 92.929H174.765L174.027 99.366C173.981 99.566 173.981 99.773 174.026 99.973C174.071 100.173 174.161 100.36 174.289 100.52C174.416 100.68 174.578 100.81 174.763 100.899C174.948 100.988 175.15 101.034 175.355 101.034C175.559 101.034 175.762 100.988 175.946 100.899C176.131 100.81 176.293 100.68 176.42 100.52C176.548 100.36 176.638 100.173 176.683 99.973C176.729 99.773 176.728 99.566 176.682 99.366Z" fill="white"/>
</mask>
<g mask="url(#mask18_625_740)">
<path d="M172.025 102.367C174.404 103.426 176.656 92.501 176.656 92.501H174.012L171.897 94.089V95.677" fill="#FCB006"/>
</g>
<path d="M175.357 93.6261C176.031 93.6261 176.577 93.0801 176.577 92.4051C176.577 91.7301 176.031 91.1831 175.357 91.1831C174.683 91.1831 174.137 91.7301 174.137 92.4051C174.137 93.0801 174.683 93.6261 175.357 93.6261Z" fill="#FF6660"/>
<path d="M145.552 83.771H144.5C143.744 83.771 142.995 83.622 142.296 83.333C141.598 83.043 140.963 82.619 140.429 82.085C139.894 81.55 139.47 80.915 139.18 80.217C138.891 79.518 138.742 78.769 138.742 78.013V69.2729H151.309V78.013C151.309 79.54 150.703 81.005 149.623 82.085C148.543 83.164 147.079 83.771 145.552 83.771Z" fill="#FF6660"/>
<path d="M150.09 80.853H139.963C138.87 80.853 137.823 80.419 137.05 79.647C136.278 78.874 135.844 77.827 135.844 76.734V66.3555H154.209V76.734C154.209 77.827 153.775 78.874 153.003 79.647C152.23 80.419 151.183 80.853 150.09 80.853Z" fill="#FF6660"/>
<mask id="mask19_625_740" style="mask-type:luminance" maskUnits="userSpaceOnUse" x="135" y="66" width="20" height="15">
<path d="M150.09 80.853H139.963C138.87 80.853 137.823 80.419 137.05 79.647C136.278 78.874 135.844 77.827 135.844 76.734V66.3555H154.209V76.734C154.209 77.827 153.775 78.874 153.003 79.647C152.23 80.419 151.183 80.853 150.09 80.853Z" fill="white"/>
</mask>
<g mask="url(#mask19_625_740)">
<path d="M137.53 81.531C132.714 67.0672 145.813 69.8386 156.792 69.2725C167.772 68.7065 150.05 65.1387 150.05 65.1387L135.846 66.3553L134.352 72.756L135.147 80.374" fill="#F44E4E"/>
</g>
<path d="M163.036 42.0449C163.036 32.1842 155.132 24.172 145.321 24.0132C142.124 23.9657 138.972 24.7685 136.187 26.3396C133.403 27.9107 131.086 30.1936 129.474 32.9546C127.861 35.7155 127.012 38.8554 127.012 42.0526C127.012 45.2498 127.862 48.3896 129.474 51.1505C132.436 56.2086 134.075 61.9328 134.075 67.7961C134.075 67.9532 134.138 68.1038 134.249 68.215C134.36 68.3261 134.51 68.3886 134.667 68.3886H155.381C155.459 68.3886 155.536 68.3732 155.608 68.3434C155.679 68.3136 155.745 68.27 155.8 68.2149C155.855 68.1599 155.898 68.0946 155.928 68.0227C155.958 67.9508 155.973 67.8738 155.973 67.796C155.973 62.0026 157.486 56.2916 160.469 51.3276C162.154 48.5248 163.042 45.3151 163.036 42.0449Z" fill="#FFCE39"/>
<mask id="mask20_625_740" style="mask-type:luminance" maskUnits="userSpaceOnUse" x="127" y="24" width="37" height="45">
<path d="M163.036 42.0449C163.036 32.1842 155.132 24.172 145.321 24.0132C142.124 23.9657 138.972 24.7685 136.187 26.3396C133.403 27.9107 131.086 30.1936 129.474 32.9546C127.861 35.7155 127.012 38.8554 127.012 42.0526C127.012 45.2498 127.862 48.3896 129.474 51.1505C132.436 56.2086 134.075 61.9328 134.075 67.7961C134.075 67.9532 134.138 68.1038 134.249 68.215C134.36 68.3261 134.51 68.3886 134.667 68.3886H155.381C155.459 68.3886 155.536 68.3732 155.608 68.3434C155.679 68.3136 155.745 68.27 155.8 68.2149C155.855 68.1599 155.898 68.0946 155.928 68.0227C155.958 67.9508 155.973 67.8738 155.973 67.796C155.973 62.0026 157.486 56.2916 160.469 51.3276C162.154 48.5248 163.042 45.3151 163.036 42.0449Z" fill="white"/>
</mask>
<g mask="url(#mask20_625_740)">
<path d="M132.901 26.7607C113.832 47.589 144.458 70.12 160.254 68.2079C176.049 66.2959 137.524 81.531 137.524 81.531L121.174 73.604L114.987 44.1021" fill="#FCB006"/>
</g>
<path d="M153.613 70.7749H136.439C135.724 70.7749 135.146 71.3549 135.146 72.0699V72.3099C135.146 73.0249 135.724 73.6039 136.439 73.6039H153.613C154.328 73.6039 154.908 73.0249 154.908 72.3099V72.0699C154.908 71.3549 154.328 70.7749 153.613 70.7749Z" fill="#F1F3FD"/>
<path d="M153.613 75.1069H136.439C135.724 75.1069 135.146 75.6869 135.146 76.4019V76.6419C135.146 77.3569 135.724 77.9359 136.439 77.9359H153.613C154.328 77.9359 154.908 77.3569 154.908 76.6419V76.4019C154.908 75.6869 154.328 75.1069 153.613 75.1069Z" fill="#F1F3FD"/>
<path d="M145.193 0.211426H144.857C143.842 0.211426 143.021 1.03423 143.021 2.04913V15.1361C143.021 16.1511 143.842 16.9738 144.857 16.9738H145.193C146.208 16.9738 147.032 16.1511 147.032 15.1361V2.04913C147.032 1.03423 146.208 0.211426 145.193 0.211426Z" fill="#FCB006"/>
<path d="M119.338 38.8433H106.271C105.256 38.8433 104.434 39.666 104.434 40.6809V41.0216C104.434 42.0365 105.256 42.8593 106.271 42.8593H119.338C120.353 42.8593 121.176 42.0365 121.176 41.0216V40.6809C121.176 39.666 120.353 38.8433 119.338 38.8433Z" fill="#FCB006"/>
<path d="M183.78 38.8433H170.713C169.698 38.8433 168.875 39.666 168.875 40.6809V41.0216C168.875 42.0365 169.698 42.8593 170.713 42.8593H183.78C184.794 42.8593 185.617 42.0365 185.617 41.0216V40.6809C185.617 39.666 184.794 38.8433 183.78 38.8433Z" fill="#FCB006"/>
<path d="M128.28 23.8479L128.041 24.0872C127.87 24.2579 127.668 24.3934 127.445 24.4858C127.222 24.5782 126.983 24.6258 126.742 24.6258C126.501 24.6258 126.262 24.5782 126.039 24.4858C125.816 24.3934 125.614 24.2579 125.443 24.0872L116.202 14.8348C115.858 14.4898 115.664 14.0222 115.664 13.5346C115.664 13.0471 115.858 12.5794 116.202 12.2344L116.441 11.9951C116.611 11.8244 116.814 11.6889 117.037 11.5965C117.26 11.5041 117.498 11.4565 117.74 11.4565C117.981 11.4565 118.22 11.5041 118.443 11.5965C118.665 11.6889 118.868 11.8244 119.038 11.9951L128.28 21.2475C128.624 21.5925 128.817 22.0601 128.817 22.5477C128.817 23.0352 128.624 23.5029 128.28 23.8479ZM173.607 11.9951L173.846 12.2344C174.19 12.5794 174.384 13.0471 174.384 13.5346C174.384 14.0222 174.19 14.4898 173.846 14.8348L164.604 24.0872C164.434 24.2579 164.232 24.3934 164.009 24.4858C163.786 24.5782 163.547 24.6258 163.306 24.6258C163.064 24.6258 162.826 24.5782 162.603 24.4858C162.38 24.3934 162.178 24.2579 162.007 24.0872L161.768 23.8479C161.424 23.5029 161.23 23.0352 161.23 22.5477C161.23 22.0601 161.424 21.5925 161.768 21.2475L171.009 11.9951C171.18 11.8244 171.382 11.6889 171.605 11.5965C171.828 11.5041 172.067 11.4565 172.308 11.4565C172.549 11.4565 172.788 11.5041 173.011 11.5965C173.234 11.6889 173.436 11.8244 173.607 11.9951Z" fill="#FCB006"/>
</svg>
