<svg width="55" height="55" viewBox="0 0 55 55" fill="none" xmlns="http://www.w3.org/2000/svg">
<g opacity="0.3">
<path d="M5.5 23.8333H20.1667C21.1391 23.8333 22.0718 23.447 22.7594 22.7594C23.447 22.0718 23.8333 21.1391 23.8333 20.1667V9.16667C23.8333 8.19421 23.447 7.26158 22.7594 6.57394C22.0718 5.88631 21.1391 5.5 20.1667 5.5H9.16667C8.19421 5.5 7.26158 5.88631 6.57394 6.57394C5.88631 7.26158 5.5 8.19421 5.5 9.16667V23.8333ZM5.5 23.8333V36.6667C5.5 40.0703 6.85208 43.3345 9.2588 45.7412C11.6655 48.1479 14.9297 49.5 18.3333 49.5M31.1667 23.8333H45.8333C46.8058 23.8333 47.7384 23.447 48.4261 22.7594C49.1137 22.0718 49.5 21.1391 49.5 20.1667V9.16667C49.5 8.19421 49.1137 7.26158 48.4261 6.57394C47.7384 5.88631 46.8058 5.5 45.8333 5.5H34.8333C33.8609 5.5 32.9282 5.88631 32.2406 6.57394C31.553 7.26158 31.1667 8.19421 31.1667 9.16667V23.8333ZM31.1667 23.8333V36.6667C31.1667 40.0703 32.5187 43.3345 34.9255 45.7412C37.3322 48.1479 40.5964 49.5 44 49.5" stroke="black"/>
</g>
</svg>
