<svg width="25" height="24" viewBox="0 0 25 24" fill="none" xmlns="http://www.w3.org/2000/svg">
<path d="M22.0275 7.58175L22.4134 6.945C22.4134 6.945 22.7532 6.38175 22.7532 5.62538C22.7532 3.79313 21.0049 3.8415 21.0049 3.8415L17.196 2.80463L15.1182 0.75L12.384 1.49437L11.4874 1.25025L10.806 1.92412L6.86966 2.99587C6.86966 2.99587 5.35466 2.95425 5.35466 4.542C5.35466 5.1975 5.64941 5.68575 5.64941 5.68575L6.15603 6.522L5.71091 6.9615L3.51341 7.56C3.51341 7.56 1.76516 7.51162 1.76516 9.34387C1.76865 9.77076 1.86851 10.1914 2.05728 10.5743L1.37891 11.2451L1.73478 11.3861C1.74266 11.4053 1.74566 11.4266 1.76103 11.442C2.44916 12.1316 2.39253 13.0579 2.29428 13.5581L1.87841 13.9747L5.02878 15.4894L9.35553 22.6312C10.0489 23.721 11.5208 23.0392 11.5208 23.0392L22.6392 17.6932L22.2233 17.2766C22.125 16.7764 22.0684 15.8501 22.7565 15.1601C22.7719 15.1447 22.7749 15.1234 22.7828 15.1046L23.1387 14.9633L21.0713 12.9195L23.445 11.7784L23.0847 11.4172C22.9995 10.9837 22.9504 10.1809 23.547 9.58313C23.5602 9.56962 23.5624 9.55163 23.5695 9.53475L23.8789 9.41213L22.0275 7.58175ZM19.8957 4.26863L19.4269 5.01038L18.2142 3.81113L19.8957 4.26863ZM15.3199 2.679L17.061 4.54013L10.7652 6.81525L9.27828 4.50675L15.3199 2.679ZM6.53291 7.1445L10.8293 14.2361L2.64416 10.9894L6.53291 7.1445ZM4.74228 7.91962L4.23791 8.41838L4.03616 8.109L4.74228 7.91962ZM3.14966 8.30737L3.61916 9.03L2.60178 10.0357C2.52183 9.81374 2.47987 9.57984 2.47766 9.34387C2.47766 8.65912 2.81741 8.3985 3.14966 8.30737ZM2.56166 13.8848L2.56728 13.863L11.9974 17.9906L2.64116 13.5304C2.64978 13.4798 2.65653 13.4239 2.66366 13.3676L9.98853 16.4351L2.68916 13.0166C2.69058 12.8604 2.6798 12.7043 2.65691 12.5497L9.43653 15.3416L2.56578 12.15C2.5218 12.0022 2.46274 11.8593 2.38953 11.7236L11.7207 15.708L11.9329 16.0582C12.3705 16.746 13.1644 16.6189 13.5645 16.4996C14.1177 16.7726 15.1092 17.4041 14.8553 18.3345C14.7214 18.8265 14.427 19.065 13.9557 19.065C13.4783 19.065 13.0017 18.8153 12.9968 18.8119L2.56166 13.8848ZM11.9539 18.8194L11.2167 19.1246L10.5904 18.1635L11.9539 18.8194ZM9.09866 20.8372L6.20028 16.0526L9.08103 17.4375L10.4434 19.5345C9.89403 19.7692 9.28016 20.3051 9.09866 20.8372ZM21.861 16.2682C21.8381 16.4228 21.8274 16.5789 21.8288 16.7351L14.5294 20.1536L21.8543 17.0861C21.8614 17.142 21.8678 17.1982 21.8768 17.2489L12.5205 21.7095L21.9507 17.5819L21.9563 17.6036L11.5212 22.53C11.5163 22.5334 11.0404 22.7831 10.5623 22.7831C10.0905 22.7831 9.79653 22.5443 9.66266 22.0526C9.31841 20.79 11.2759 20.0741 11.3052 20.0632L13.0208 19.3312C13.2049 19.4096 14.5185 19.9253 15.1624 18.9131L15.5685 18.2434L22.1288 15.4421C22.0554 15.5778 21.9963 15.7207 21.9522 15.8685L15.0814 19.0601L21.861 16.2682ZM21.8738 14.7079L16.3144 17.0119L17.8572 14.4653L20.3948 13.2454L21.8738 14.7079ZM22.7712 10.5428C22.7514 10.6767 22.742 10.812 22.743 10.9474L16.4175 13.9099L22.7655 11.2515C22.7719 11.2999 22.7772 11.349 22.785 11.3925L14.676 15.258L22.8488 11.6809L22.8537 11.6996L13.8098 15.9697C13.8057 15.9724 13.3928 16.1891 12.9788 16.1891C12.5697 16.1891 12.315 15.9817 12.1992 15.5557C11.9007 14.4615 13.5972 13.8412 13.6227 13.8319L23.0029 9.82687C22.9397 9.94468 22.8886 10.0686 22.8503 10.1966L16.8953 12.9626L22.7712 10.5428Z" fill="black"/>
</svg>
