<svg width="48" height="46" viewBox="0 0 48 46" fill="none" xmlns="http://www.w3.org/2000/svg">
<path d="M41.25 34.7656C42.2812 35.2812 43.2109 35.9141 44.0391 36.6641C44.8672 37.4141 45.5703 38.25 46.1484 39.1719C46.7266 40.0938 47.1797 41.0938 47.5078 42.1719C47.8359 43.25 48 44.3594 48 45.5H45C45 44.2656 44.7656 43.1016 44.2969 42.0078C43.8281 40.9141 43.1875 39.9609 42.375 39.1484C41.5625 38.3359 40.6016 37.6875 39.4922 37.2031C38.3828 36.7188 37.2188 36.4844 36 36.5C34.75 36.5 33.5859 36.7344 32.5078 37.2031C31.4297 37.6719 30.4766 38.3125 29.6484 39.125C28.8203 39.9375 28.1719 40.8984 27.7031 42.0078C27.2344 43.1172 27 44.2812 27 45.5H24C24 44.3594 24.1562 43.25 24.4688 42.1719C24.7812 41.0938 25.2344 40.0938 25.8281 39.1719C26.4219 38.25 27.1328 37.4141 27.9609 36.6641C28.7891 35.9141 29.7188 35.2812 30.75 34.7656C29.5781 33.9219 28.6641 32.8672 28.0078 31.6016C27.3516 30.3359 27.0156 28.9688 27 27.5C27 26.2656 27.2344 25.1016 27.7031 24.0078C28.1719 22.9141 28.8125 21.9609 29.625 21.1484C30.4375 20.3359 31.3906 19.6875 32.4844 19.2031C33.5781 18.7188 34.75 18.4844 36 18.5C37.2344 18.5 38.3984 18.7344 39.4922 19.2031C40.5859 19.6719 41.5391 20.3125 42.3516 21.125C43.1641 21.9375 43.8125 22.8984 44.2969 24.0078C44.7812 25.1172 45.0156 26.2812 45 27.5C45 28.9688 44.6719 30.3359 44.0156 31.6016C43.3594 32.8672 42.4375 33.9219 41.25 34.7656ZM36 33.5C36.8281 33.5 37.6016 33.3438 38.3203 33.0312C39.0391 32.7188 39.6797 32.2891 40.2422 31.7422C40.8047 31.1953 41.2344 30.5625 41.5312 29.8438C41.8281 29.125 41.9844 28.3438 42 27.5C42 26.6719 41.8438 25.8984 41.5312 25.1797C41.2188 24.4609 40.7891 23.8203 40.2422 23.2578C39.6953 22.6953 39.0625 22.2656 38.3438 21.9688C37.625 21.6719 36.8438 21.5156 36 21.5C35.1719 21.5 34.3984 21.6562 33.6797 21.9688C32.9609 22.2812 32.3203 22.7109 31.7578 23.2578C31.1953 23.8047 30.7656 24.4375 30.4688 25.1562C30.1719 25.875 30.0156 26.6562 30 27.5C30 28.3281 30.1562 29.1016 30.4688 29.8203C30.7812 30.5391 31.2109 31.1797 31.7578 31.7422C32.3047 32.3047 32.9375 32.7344 33.6562 33.0312C34.375 33.3281 35.1562 33.4844 36 33.5ZM24 35.375C23.5 35.9531 23.0469 36.5547 22.6406 37.1797C22.2344 37.8047 21.875 38.4766 21.5625 39.1953C20.7344 38.3359 19.7344 37.6719 18.5625 37.2031C17.3906 36.7344 16.2031 36.5 15 36.5H6V6.5H3V39.5H21.4453C21.2266 39.9844 21.0469 40.4766 20.9062 40.9766C20.7656 41.4766 20.6484 41.9844 20.5547 42.5H0V3.5H6V0.5H15C16.375 0.5 17.6953 0.710938 18.9609 1.13281C20.2266 1.55469 21.4062 2.1875 22.5 3.03125C23.5781 2.1875 24.75 1.55469 26.0156 1.13281C27.2812 0.710938 28.6094 0.5 30 0.5H39V3.5H45V18.5C44.0938 17.6094 43.0938 16.8672 42 16.2734V6.5H39V15.1484C38.5 15.0078 38 14.9062 37.5 14.8438C37 14.7812 36.5 14.75 36 14.75V3.5H30C28.9062 3.5 27.8438 3.6875 26.8125 4.0625C25.7812 4.4375 24.8438 4.99219 24 5.72656V35.375ZM21 35.0703V5.72656C20.1562 5.00781 19.2188 4.46094 18.1875 4.08594C17.1562 3.71094 16.0938 3.51562 15 3.5H9V33.5H15C16.0469 33.5 17.0781 33.6328 18.0938 33.8984C19.1094 34.1641 20.0781 34.5547 21 35.0703Z" fill="#1A80FD"/>
</svg>
