<svg width="48" height="48" viewBox="0 0 48 48" fill="none" xmlns="http://www.w3.org/2000/svg">
<path d="M43.3171 36C44.5591 36 45.7502 35.4943 46.6284 34.5941C47.5066 33.6939 48 32.473 48 31.2V4.8C48 3.52696 47.5066 2.30606 46.6284 1.40589C45.7502 0.505713 44.5591 0 43.3171 0H18.638C19.4576 1.464 19.9024 3.12 19.9024 4.8H43.3171V31.2H22.2439V36M31.6098 12V16.8H17.561V48H12.878V33.6H8.19512V48H3.5122V28.8H0V16.8C0 15.527 0.493378 14.3061 1.3716 13.4059C2.24982 12.5057 3.44094 12 4.68293 12H31.6098ZM15.2195 4.8C15.2195 6.07304 14.7261 7.29394 13.8479 8.19411C12.9697 9.09429 11.7786 9.6 10.5366 9.6C9.2946 9.6 8.10347 9.09429 7.22526 8.19411C6.34704 7.29394 5.85366 6.07304 5.85366 4.8C5.85366 3.52696 6.34704 2.30606 7.22526 1.40589C8.10347 0.505713 9.2946 0 10.5366 0C11.7786 0 12.9697 0.505713 13.8479 1.40589C14.7261 2.30606 15.2195 3.52696 15.2195 4.8Z" fill="#F37021"/>
</svg>
